<?xml version="1.0" standalone="no"?>
<!DOCTYPE svg PUBLIC "-//W3C//DTD SVG 20010904//EN"
 "http://www.w3.org/TR/2001/REC-SVG-20010904/DTD/svg10.dtd">
<svg version="1.0" xmlns="http://www.w3.org/2000/svg"
 width="16.000000pt" height="16.000000pt" viewBox="0 0 16.000000 16.000000"
 preserveAspectRatio="xMidYMid meet">
<metadata>
Created by potrace 1.11, written by Peter Selinger 2001-2013
</metadata>
<g transform="translate(0.000000,16.000000) scale(0.001667,-0.001667)"
fill="#000000" stroke="none">
<path d="M5327 9524 c-4 -4 -24 -8 -45 -8 l-37 -1 -1 -51 c0 -28 -4 -55 -8
-62 -3 -6 -3 -13 1 -15 10 -6 9 -130 -1 -145 -3 -6 -3 -13 1 -15 10 -6 9 -130
-1 -145 -3 -6 -3 -13 1 -15 10 -6 9 -130 -1 -145 -3 -6 -3 -13 1 -15 10 -6 9
-130 -1 -145 -3 -6 -3 -13 1 -15 10 -6 9 -130 -1 -145 -3 -6 -3 -13 1 -15 10
-6 9 -130 -1 -145 -3 -6 -3 -13 1 -15 10 -6 9 -130 -1 -145 -3 -6 -3 -13 1
-15 10 -6 9 -130 -1 -145 -3 -6 -3 -13 1 -15 10 -6 9 -130 -1 -145 -3 -6 -3
-13 1 -15 10 -6 9 -130 -1 -145 -3 -6 -3 -13 1 -15 10 -6 9 -130 -1 -145 -3
-6 -3 -13 1 -15 10 -6 9 -130 -1 -145 -3 -6 -3 -13 1 -15 10 -6 9 -130 -1
-145 -3 -6 -3 -13 1 -15 10 -6 9 -130 -1 -145 -3 -6 -3 -13 1 -15 10 -6 9
-130 -1 -145 -3 -6 -3 -13 1 -15 10 -6 9 -130 -1 -145 -3 -6 -3 -13 1 -15 10
-6 9 -130 -1 -145 -3 -6 -3 -13 1 -15 10 -6 9 -130 -1 -145 -3 -6 -3 -13 1
-15 10 -6 9 -130 -1 -145 -3 -6 -3 -13 1 -15 10 -6 9 -130 -1 -145 -3 -6 -3
-13 1 -15 10 -6 9 -130 -1 -145 -3 -6 -3 -13 1 -15 10 -6 9 -130 -1 -145 -3
-6 -3 -13 1 -15 10 -6 9 -130 -1 -145 -3 -6 -3 -13 1 -15 10 -6 9 -130 -1
-145 -3 -6 -3 -13 1 -15 10 -6 9 -130 -1 -145 -3 -6 -3 -13 1 -15 10 -6 9
-130 -1 -145 -3 -6 -3 -13 1 -15 10 -6 9 -130 -1 -145 -3 -6 -3 -13 1 -15 10
-6 9 -130 -1 -145 -3 -6 -3 -13 1 -15 10 -6 9 -130 -1 -145 -3 -6 -3 -13 1
-15 7 -5 9 -116 3 -142 -1 -5 -1 -14 0 -20 2 -15 3 -368 0 -380 -1 -5 -1 -14
0 -20 2 -14 3 -448 0 -460 -1 -5 -1 -14 0 -20 1 -5 2 -85 2 -177 1 -154 2
-167 19 -171 11 -3 22 -1 25 4 3 5 12 5 23 0 9 -5 23 -6 31 -1 7 4 24 4 37 -1
15 -5 23 -5 23 2 0 6 5 7 11 3 15 -9 148 -11 142 -2 -2 5 7 4 21 -2 16 -6 27
-6 31 0 4 6 13 7 24 1 9 -5 23 -6 31 -1 7 4 24 4 37 -1 15 -5 23 -5 23 2 0 6
5 7 11 3 15 -9 148 -11 142 -2 -2 5 7 4 21 -2 16 -6 27 -6 31 0 4 6 13 7 24 1
9 -5 23 -6 31 -1 7 4 24 4 37 -1 15 -5 23 -5 23 2 0 6 5 7 11 3 15 -9 148 -11
142 -2 -2 5 7 4 21 -2 16 -6 27 -6 31 0 4 6 13 7 24 1 9 -5 23 -6 31 -1 7 4
24 4 37 -1 15 -5 23 -5 23 2 0 6 5 7 12 3 17 -11 78 -11 78 -1 0 4 5 5 11 2
13 -9 69 -13 69 -6 0 3 20 6 45 6 25 0 45 -2 45 -5 0 -3 11 -5 25 -5 14 0 25
4 25 8 0 4 8 3 18 -2 11 -6 24 -6 34 0 10 6 19 6 23 0 4 -7 15 -7 31 -1 14 6
23 7 21 2 -3 -4 26 -7 64 -7 38 0 69 4 69 8 0 5 5 5 11 2 13 -9 69 -13 69 -6
0 6 38 5 108 -2 18 -2 35 0 38 5 3 5 10 5 16 2 16 -10 67 -11 61 -2 -2 5 7 4
21 -2 16 -6 27 -6 31 1 4 5 11 7 16 3 16 -9 109 -11 109 -1 0 4 5 5 11 2 13
-9 69 -13 69 -6 0 3 20 6 45 6 25 0 45 -2 45 -5 0 -3 11 -5 25 -5 14 0 25 4
25 8 0 4 8 3 18 -2 11 -6 24 -6 34 0 10 6 19 6 23 0 4 -7 15 -7 31 -1 14 6 23
7 21 2 -3 -4 26 -7 64 -7 38 0 69 4 69 8 0 5 5 5 11 2 13 -9 69 -13 69 -6 0 6
38 5 108 -2 18 -2 35 0 38 5 3 5 10 5 16 2 16 -10 67 -11 61 -2 -2 5 7 4 21
-2 16 -6 27 -6 31 1 4 5 11 7 16 3 16 -9 109 -11 109 -1 0 4 5 5 11 2 13 -9
69 -13 69 -6 0 3 20 6 45 6 25 0 45 -2 45 -5 0 -3 11 -5 25 -5 14 0 25 4 25 8
0 4 8 3 18 -2 11 -6 24 -6 34 0 10 6 19 6 23 0 4 -7 15 -7 31 -1 14 6 23 7 21
2 -3 -4 26 -7 64 -7 38 0 69 4 69 8 0 5 5 5 11 2 15 -10 69 -12 69 -3 0 4 6 5
13 3 21 -8 135 -10 130 -3 -2 5 7 4 21 -2 16 -6 27 -6 31 0 4 6 13 7 24 1 9
-5 23 -6 31 -1 7 4 24 4 37 -1 15 -5 23 -5 23 2 0 6 5 7 11 3 15 -9 148 -11
142 -2 -2 5 7 4 21 -2 16 -6 27 -6 31 0 4 6 13 7 24 1 9 -5 23 -6 31 -1 7 4
24 4 37 -1 l23 -9 0 609 c0 533 -2 608 -15 608 -8 0 -15 -4 -15 -8 0 -12 -33
2 -47 20 -10 13 -11 12 -6 -9 5 -20 4 -23 -8 -14 -16 12 -29 12 -46 1 -7 -5
-21 1 -34 14 -14 14 -20 17 -16 7 4 -12 -2 -17 -23 -20 -16 -3 -34 0 -39 5 -5
5 -11 5 -15 -2 -5 -7 -15 -7 -31 -1 -17 6 -25 6 -25 -1 0 -6 -5 -7 -10 -4 -6
4 -8 10 -5 15 3 5 0 12 -6 16 -7 4 -9 3 -6 -3 4 -6 0 -16 -7 -22 -10 -9 -16
-9 -21 -1 -5 8 -11 8 -21 -1 -8 -6 -14 -7 -14 -2 0 12 -39 11 -59 -1 -9 -6
-12 -5 -7 2 4 7 -1 10 -14 9 -11 -1 -20 -5 -20 -9 0 -11 -33 4 -47 21 -10 13
-11 12 -6 -9 5 -20 4 -23 -8 -14 -16 12 -29 12 -46 1 -7 -5 -21 1 -34 14 -14
14 -20 17 -16 7 4 -12 -2 -17 -23 -20 -16 -3 -34 0 -39 5 -5 5 -11 5 -15 -2
-5 -7 -15 -7 -31 -1 -17 6 -25 6 -25 -1 0 -6 -5 -7 -10 -4 -6 4 -8 10 -5 15 3
5 0 12 -6 16 -7 4 -9 3 -6 -3 4 -6 0 -16 -7 -22 -10 -9 -16 -9 -21 -1 -5 8
-11 8 -21 -1 -8 -6 -14 -7 -14 -2 0 12 -39 11 -59 -1 -9 -6 -12 -5 -7 2 4 7
-1 10 -14 9 -11 -1 -20 -5 -20 -9 0 -11 -33 4 -47 21 -10 13 -11 12 -6 -9 5
-20 4 -23 -8 -14 -16 12 -29 12 -46 1 -7 -5 -21 1 -34 14 -14 14 -20 17 -16 7
4 -12 -2 -17 -23 -20 -16 -3 -34 0 -39 5 -5 5 -11 5 -15 -2 -5 -7 -15 -7 -31
-1 -17 6 -25 6 -25 -1 0 -6 -5 -7 -10 -4 -6 4 -8 10 -5 15 3 5 0 12 -6 16 -7
4 -9 3 -6 -3 4 -6 0 -16 -7 -22 -10 -9 -16 -9 -21 -1 -5 8 -11 8 -21 -1 -8 -6
-14 -7 -14 -2 0 12 -39 11 -59 -1 -9 -6 -12 -5 -7 2 4 7 -1 10 -14 9 -11 -1
-20 -5 -20 -9 0 -11 -33 4 -47 21 -10 13 -11 12 -6 -9 5 -20 4 -23 -8 -14 -16
12 -29 12 -46 1 -7 -5 -21 1 -34 14 -14 14 -20 17 -16 7 4 -12 -2 -17 -23 -20
-16 -3 -34 0 -39 5 -5 5 -11 5 -15 -2 -5 -7 -15 -7 -31 -1 -17 6 -25 6 -25 -1
0 -6 -5 -7 -10 -4 -6 4 -8 10 -5 15 3 5 0 12 -6 16 -7 4 -9 3 -6 -3 4 -6 0
-16 -7 -22 -10 -9 -16 -9 -21 -1 -5 8 -11 8 -21 -1 -8 -6 -14 -7 -14 -2 0 12
-39 11 -59 -1 -9 -6 -12 -5 -7 2 4 7 -1 10 -14 9 -11 -1 -20 -5 -20 -9 0 -11
-33 4 -47 21 -10 13 -11 12 -6 -9 5 -21 4 -23 -8 -13 -17 14 -30 14 -46 1 -8
-6 -19 -2 -34 13 -14 14 -20 17 -16 7 4 -12 -2 -17 -23 -20 -16 -3 -34 0 -39
5 -5 5 -11 5 -15 -2 -5 -7 -15 -7 -31 -1 -17 6 -25 6 -25 -1 0 -6 -5 -7 -10
-4 -6 4 -8 10 -5 15 3 5 0 12 -6 16 -7 4 -9 3 -6 -3 4 -6 0 -16 -7 -22 -10 -9
-16 -9 -21 -1 -5 8 -11 8 -21 -1 -8 -6 -14 -7 -14 -2 0 12 -39 11 -59 -1 -9
-6 -12 -5 -7 2 4 7 -1 10 -14 9 -11 -1 -20 -5 -20 -9 0 -11 -33 4 -47 21 -10
13 -11 12 -6 -9 5 -21 4 -23 -8 -13 -23 18 -25 19 -42 5 -13 -11 -19 -10 -38
9 -14 14 -20 17 -16 7 4 -12 -2 -17 -23 -20 -16 -3 -34 0 -39 5 -5 5 -11 5
-15 -2 -5 -7 -15 -7 -31 -1 -17 6 -25 6 -25 -1 0 -6 -5 -7 -10 -4 -6 4 -8 10
-5 15 3 5 0 12 -6 16 -7 4 -9 3 -6 -3 4 -6 0 -16 -7 -22 -10 -9 -16 -9 -21 -1
-5 8 -11 8 -21 -1 -8 -6 -14 -7 -14 -2 0 12 -39 11 -59 -1 -9 -6 -12 -5 -7 2
4 7 -1 10 -14 9 -11 -1 -20 -5 -20 -9 0 -11 -33 4 -47 21 -10 13 -11 12 -6 -9
6 -21 4 -23 -9 -13 -8 7 -18 10 -21 6 -12 -11 -56 -10 -49 2 4 5 7 17 7 25 0
8 4 21 8 28 6 8 4 12 -5 10 -8 -2 -13 7 -12 24 0 22 -3 25 -14 16 -7 -6 -20
-24 -28 -39 -13 -26 -12 -29 3 -38 10 -5 21 -8 25 -8 3 1 10 -2 15 -7 5 -5 -4
-6 -20 -2 -17 4 -26 3 -23 -3 7 -11 -20 -8 -31 4 -4 4 -3 5 4 1 6 -3 14 -2 18
4 3 5 0 10 -7 10 -9 0 -13 14 -13 40 0 22 4 40 8 40 5 0 5 6 0 13 -4 6 -8 40
-8 74 0 61 0 62 25 56 37 -9 42 -13 29 -29 -6 -7 -15 -11 -20 -8 -5 3 -9 0 -9
-6 0 -7 8 -9 20 -5 28 9 25 -3 -11 -37 -17 -16 -29 -31 -27 -34 2 -2 21 12 41
31 21 20 32 37 26 41 -6 3 -8 12 -5 19 6 16 -13 35 -37 35 -10 0 -15 5 -12 11
4 6 13 8 21 5 8 -3 14 -2 14 3 0 5 -11 11 -24 13 -17 4 -23 1 -19 -9 3 -7 0
-13 -7 -13 -6 0 -8 5 -5 10 3 6 0 10 -7 10 -8 0 -9 3 -2 8 6 4 10 42 10 90 -1
65 2 82 13 82 11 0 10 4 -5 16 -17 14 -17 15 -1 10 23 -7 60 11 54 27 -2 7
-15 12 -29 12 -17 1 -24 -3 -21 -12 3 -7 0 -13 -5 -13 -15 0 -24 17 -13 24 5
4 8 17 6 31 -1 14 2 25 7 25 5 0 6 6 1 13 -4 6 -8 40 -8 74 0 61 0 62 25 56
37 -9 42 -13 29 -29 -6 -7 -15 -11 -20 -8 -5 3 -9 0 -9 -6 0 -7 8 -9 20 -5 28
9 25 -3 -11 -37 -17 -16 -29 -32 -26 -34 2 -3 17 9 33 25 15 16 32 27 37 24 5
-3 4 5 -3 17 -6 12 -9 24 -6 27 10 10 -15 33 -36 33 -11 0 -16 5 -13 11 4 6
13 8 21 5 8 -3 14 -2 14 3 0 5 -11 11 -24 13 -17 4 -23 1 -19 -9 3 -7 0 -13
-7 -13 -6 0 -8 5 -5 10 3 6 0 10 -7 10 -8 0 -9 3 -2 8 6 4 10 42 10 90 -1 65
2 82 13 82 11 0 10 4 -5 16 -17 14 -17 15 -1 10 23 -7 60 11 54 27 -2 7 -15
12 -29 12 -17 1 -24 -3 -21 -12 3 -7 0 -13 -5 -13 -15 0 -24 17 -13 24 5 4 8
17 6 31 -1 14 2 25 7 25 5 0 6 6 1 13 -4 6 -8 40 -8 74 0 61 0 62 25 56 37 -9
42 -13 29 -29 -6 -7 -15 -11 -20 -8 -5 3 -9 0 -9 -6 0 -7 8 -9 20 -5 28 9 25
-3 -11 -37 -17 -16 -29 -32 -26 -34 2 -3 17 9 33 25 15 16 32 27 37 24 5 -3 4
5 -3 17 -6 12 -9 24 -6 27 10 10 -15 33 -36 33 -11 0 -16 5 -13 11 4 6 13 8
21 5 8 -3 14 -2 14 3 0 5 -11 11 -24 13 -17 4 -23 1 -19 -9 3 -7 0 -13 -7 -13
-6 0 -8 5 -5 10 3 6 0 10 -7 10 -8 0 -9 3 -2 8 6 4 10 42 10 90 -1 65 2 82 13
82 11 0 10 4 -5 16 -17 14 -17 15 -1 10 23 -7 60 11 54 27 -2 7 -15 12 -29 12
-17 1 -24 -3 -21 -12 3 -7 0 -13 -5 -13 -15 0 -24 17 -13 24 5 4 8 17 6 31 -1
14 2 25 7 25 5 0 6 6 1 13 -4 6 -8 40 -8 74 0 61 0 62 25 56 37 -9 42 -13 29
-29 -6 -7 -15 -11 -20 -8 -5 3 -9 0 -9 -6 0 -7 8 -9 20 -5 28 9 25 -3 -11 -37
-17 -16 -29 -32 -26 -34 2 -3 17 9 33 25 15 16 32 27 37 24 5 -3 4 5 -3 17 -6
12 -9 24 -6 27 10 10 -15 33 -36 33 -11 0 -16 5 -13 11 4 6 13 8 21 5 8 -3 14
-2 14 3 0 5 -11 11 -24 13 -17 4 -23 1 -19 -9 3 -7 0 -13 -7 -13 -6 0 -8 5 -5
10 3 6 0 10 -7 10 -8 0 -9 3 -2 8 6 4 10 42 10 90 -1 65 2 82 13 82 11 0 10 4
-5 16 -17 14 -17 15 -1 10 23 -7 60 11 54 27 -2 7 -15 12 -29 12 -17 1 -24 -3
-21 -12 3 -7 0 -13 -5 -13 -15 0 -24 17 -13 24 5 4 8 17 6 31 -1 14 2 25 7 25
5 0 6 6 1 13 -4 6 -8 40 -8 74 0 61 0 62 25 56 37 -9 42 -13 29 -29 -6 -7 -15
-11 -20 -8 -5 3 -9 0 -9 -6 0 -7 8 -9 20 -5 28 9 25 -3 -11 -37 -17 -16 -29
-32 -26 -34 2 -3 17 9 33 25 15 16 32 27 37 24 5 -3 4 5 -3 17 -6 12 -9 24 -6
27 10 10 -15 33 -36 33 -11 0 -16 5 -13 11 4 6 13 8 21 5 8 -3 14 -2 14 3 0 5
-11 11 -24 13 -17 4 -23 1 -19 -9 3 -7 0 -13 -7 -13 -6 0 -8 5 -5 10 3 6 0 10
-7 10 -8 0 -9 3 -2 8 6 4 10 42 10 90 -1 45 2 82 6 82 4 0 22 14 40 31 33 32
33 32 3 12 -16 -11 -35 -22 -41 -26 -7 -4 -10 19 -10 69 1 57 4 74 15 74 11 0
9 4 -5 16 -17 14 -17 15 -1 10 23 -7 60 11 54 27 -2 7 -15 12 -29 12 -17 1
-24 -3 -21 -12 3 -7 0 -13 -5 -13 -15 0 -24 17 -13 24 5 4 8 17 6 31 -1 14 2
25 7 25 5 0 6 6 1 13 -4 6 -8 40 -8 74 0 61 0 62 25 56 37 -9 42 -13 29 -29
-6 -7 -15 -11 -20 -8 -5 3 -9 0 -9 -6 0 -7 8 -9 20 -5 28 9 25 -3 -11 -37 -17
-16 -29 -32 -26 -34 2 -3 17 9 33 25 15 16 32 27 37 24 5 -3 4 5 -3 17 -6 12
-9 24 -6 27 10 10 -15 33 -36 33 -11 0 -16 5 -13 11 4 6 13 8 21 5 8 -3 14 -2
14 3 0 5 -11 11 -24 13 -17 4 -23 1 -19 -9 3 -7 0 -13 -7 -13 -6 0 -8 5 -5 10
3 6 0 10 -7 10 -8 0 -9 3 -2 8 6 4 10 42 10 90 -1 65 2 82 13 82 11 0 10 4 -5
16 -17 14 -17 15 -1 10 23 -7 60 11 54 27 -2 7 -15 12 -29 12 -17 1 -24 -3
-21 -12 3 -7 0 -13 -5 -13 -15 0 -24 17 -13 24 5 4 8 17 6 31 -1 14 2 25 7 25
5 0 6 6 1 13 -4 6 -8 40 -8 74 0 61 0 62 25 56 37 -9 42 -13 29 -29 -6 -7 -15
-11 -20 -8 -5 3 -9 0 -9 -6 0 -7 8 -9 20 -5 28 9 25 -3 -11 -37 -17 -16 -29
-32 -26 -34 2 -3 17 9 33 25 15 16 32 27 37 24 5 -3 4 5 -3 17 -6 12 -9 24 -6
27 10 10 -15 33 -36 33 -11 0 -16 5 -13 11 4 6 13 8 21 5 8 -3 14 -2 14 3 0 5
-11 11 -24 13 -17 4 -23 1 -19 -9 3 -7 0 -13 -7 -13 -6 0 -8 5 -5 10 3 6 0 10
-7 10 -8 0 -9 3 -2 8 6 4 10 42 10 90 -1 65 2 82 13 82 11 0 10 4 -5 16 -17
14 -17 15 -1 10 23 -7 60 11 54 27 -2 7 -15 12 -29 12 -17 1 -24 -3 -21 -12 3
-7 0 -13 -5 -13 -15 0 -24 17 -13 24 5 4 8 17 6 31 -1 14 2 25 7 25 5 0 6 6 1
13 -4 6 -8 40 -8 74 0 61 0 62 25 56 37 -9 42 -13 29 -29 -6 -7 -15 -11 -20
-8 -5 3 -9 0 -9 -6 0 -7 8 -9 20 -5 28 9 25 -3 -11 -37 -17 -16 -29 -32 -26
-34 2 -3 17 9 33 25 15 16 32 27 37 24 5 -3 4 5 -3 17 -6 12 -9 24 -6 27 10
10 -15 33 -36 33 -11 0 -16 5 -13 11 4 6 13 8 21 5 8 -3 14 -2 14 3 0 5 -11
11 -24 13 -17 4 -23 1 -19 -9 3 -7 0 -13 -7 -13 -6 0 -8 5 -5 10 3 6 0 10 -7
10 -8 0 -9 3 -2 8 6 4 10 42 10 90 -1 65 2 82 13 82 11 0 10 4 -5 16 -17 14
-17 15 -1 10 23 -7 60 11 54 27 -2 7 -15 12 -29 12 -17 1 -24 -3 -21 -12 3 -7
0 -13 -5 -13 -15 0 -24 17 -13 24 5 4 8 17 6 31 -1 14 2 25 7 25 5 0 6 6 1 13
-4 6 -8 40 -8 74 0 61 0 62 25 56 37 -9 42 -13 29 -29 -6 -7 -15 -11 -20 -8
-5 3 -9 0 -9 -6 0 -7 8 -9 20 -5 28 9 25 -3 -11 -37 -17 -16 -29 -32 -26 -34
2 -3 17 9 33 25 15 16 32 27 37 24 5 -3 4 5 -3 17 -6 12 -9 24 -6 27 10 10
-15 33 -36 33 -11 0 -16 5 -13 11 4 6 13 8 21 5 8 -3 14 -2 14 3 0 5 -11 11
-24 13 -17 4 -23 1 -19 -9 3 -7 0 -13 -7 -13 -6 0 -8 5 -5 10 3 6 0 10 -7 10
-8 0 -9 3 -2 8 6 4 10 42 10 90 -1 65 2 82 13 82 11 0 10 4 -5 16 -17 14 -17
15 -1 10 23 -7 60 11 54 27 -2 7 -15 12 -29 12 -17 1 -24 -3 -21 -12 3 -7 0
-13 -5 -13 -15 0 -24 17 -13 24 5 4 8 17 6 31 -1 14 2 25 8 25 6 0 6 4 0 13
-5 6 -9 67 -8 135 1 79 -3 122 -9 123 -6 0 -2 4 9 9 31 14 36 11 23 -10 -10
-16 -10 -24 1 -41 11 -19 11 -21 -1 -16 -9 3 -15 -1 -15 -9 0 -12 4 -12 23 1
30 19 40 19 24 0 -9 -10 -9 -15 -1 -15 6 0 11 3 12 8 6 56 7 53 -12 36 -17
-16 -19 -15 -25 1 -4 10 -2 26 4 36 10 15 8 20 -9 30 -17 9 -20 8 -14 -2 5 -7
4 -10 -2 -6 -6 4 -10 22 -9 41 l3 33 -61 2 c-34 0 -68 1 -76 1 -8 0 -79 -1
-158 -2 -78 -2 -142 1 -142 5 0 4 -8 4 -17 -1 -10 -4 -49 -6 -88 -5 -86 4 -63
4 -233 1 -78 -2 -142 1 -142 5 0 5 -5 5 -12 1 -16 -10 -177 -11 -181 -1 -1 5
-6 5 -10 1z m1173 -443 c0 -5 -7 -12 -16 -15 -24 -9 -28 -7 -14 9 14 17 30 20
30 6z m0 -480 c0 -5 -7 -12 -16 -15 -24 -9 -28 -7 -14 9 14 17 30 20 30 6z m0
-480 c0 -5 -7 -12 -16 -15 -24 -9 -28 -7 -14 9 14 17 30 20 30 6z m0 -480 c0
-5 -7 -12 -16 -15 -24 -9 -28 -7 -14 9 14 17 30 20 30 6z m0 -480 c0 -5 -7
-12 -16 -15 -24 -9 -28 -7 -14 9 14 17 30 20 30 6z m0 -640 c0 -5 -7 -12 -16
-15 -24 -9 -28 -7 -14 9 14 17 30 20 30 6z m0 -480 c0 -5 -7 -12 -16 -15 -24
-9 -28 -7 -14 9 14 17 30 20 30 6z m0 -480 c0 -5 -7 -12 -16 -15 -24 -9 -28
-7 -14 9 14 17 30 20 30 6z m0 -480 c0 -5 -7 -12 -16 -15 -24 -9 -28 -7 -14 9
14 17 30 20 30 6z m9 -438 c-1 -5 0 -10 1 -13 9 -24 6 -38 -9 -35 -9 2 -20 4
-26 4 -5 1 -4 5 3 10 8 4 13 11 13 15 -3 18 0 26 9 26 6 0 9 -3 9 -7z"/>
<path d="M6493 4615 c0 -8 4 -12 9 -9 5 3 6 10 3 15 -9 13 -12 11 -12 -6z"/>
<path d="M6470 9510 c-13 -8 -12 -10 3 -10 9 0 17 5 17 10 0 12 -1 12 -20 0z"/>
<path d="M6500 9500 c0 -5 5 -10 11 -10 5 0 7 5 4 10 -3 6 -8 10 -11 10 -2 0
-4 -4 -4 -10z"/>
<path d="M6455 9480 c10 -16 45 -32 45 -20 0 5 -7 10 -15 10 -8 0 -15 5 -15
10 0 6 -5 10 -11 10 -5 0 -7 -4 -4 -10z"/>
<path d="M6510 9446 c0 -7 -7 -19 -15 -26 -8 -7 -15 -17 -15 -23 0 -5 9 0 20
13 18 21 27 50 15 50 -3 0 -5 -6 -5 -14z"/>
<path d="M6460 9317 c-10 -19 -9 -20 2 -6 7 9 19 14 26 12 17 -6 15 4 -3 11
-9 3 -19 -3 -25 -17z"/>
<path d="M6510 9323 c0 -6 -13 -16 -28 -22 -16 -7 -29 -19 -29 -28 0 -14 2
-14 12 1 7 9 17 16 22 16 14 0 37 29 29 37 -3 3 -6 2 -6 -4z"/>
<path d="M6502 9270 c-7 -12 -17 -18 -22 -15 -6 3 -10 1 -10 -5 0 -7 8 -9 20
-5 28 9 25 -3 -11 -37 -17 -16 -29 -32 -26 -34 2 -3 17 9 33 25 15 16 32 27
37 24 5 -3 4 4 -2 15 -6 11 -8 28 -5 36 9 22 1 20 -14 -4z"/>
<path d="M6493 9184 c-12 -13 -19 -24 -16 -24 4 0 2 -5 -5 -12 -18 -18 -14
-37 7 -35 11 0 17 5 15 9 -3 4 -1 8 5 8 5 0 12 -8 14 -17 2 -10 4 -4 3 14 l-1
32 -22 -21 c-31 -29 -29 -10 2 26 14 16 25 33 25 38 0 11 -1 10 -27 -18z"/>
<path d="M6514 9055 c-4 -8 -9 -13 -13 -10 -5 2 -18 -10 -30 -28 l-22 -32 24
27 c14 15 27 24 30 22 3 -3 10 4 17 15 6 12 8 21 5 21 -3 0 -8 -7 -11 -15z"/>
<path d="M6482 8997 l-21 -22 20 -33 c12 -17 25 -32 31 -32 5 0 2 7 -6 16 -22
21 -37 50 -30 57 8 8 33 -16 27 -25 -2 -5 1 -8 6 -8 16 0 13 16 -4 30 -15 13
-12 30 6 30 6 0 7 -5 3 -12 -4 -7 -3 -8 5 -4 12 7 6 26 -8 26 -4 0 -17 -10
-29 -23z"/>
<path d="M6450 8941 c0 -5 7 -12 16 -15 14 -5 15 -4 4 9 -14 17 -20 19 -20 6z"/>
<path d="M6466 8894 c-8 -21 -8 -21 10 -28 14 -5 15 -4 5 8 -7 8 -8 17 -3 20
5 3 14 -6 20 -19 7 -14 17 -25 24 -25 9 0 10 3 2 8 -6 4 -16 17 -23 30 -14 26
-26 28 -35 6z"/>
<path d="M6493 8704 c-12 -13 -19 -24 -16 -24 4 0 2 -5 -5 -12 -18 -18 -14
-37 7 -35 11 0 17 5 15 9 -3 4 -1 8 5 8 5 0 12 -8 14 -17 2 -10 4 -4 3 14 l-1
32 -22 -21 c-31 -29 -29 -10 2 26 14 16 25 33 25 38 0 11 -1 10 -27 -18z"/>
<path d="M6514 8575 c-4 -8 -9 -13 -13 -10 -5 2 -18 -10 -30 -28 l-22 -32 24
27 c14 15 27 24 30 22 3 -3 10 4 17 15 6 12 8 21 5 21 -3 0 -8 -7 -11 -15z"/>
<path d="M6482 8517 l-21 -22 20 -33 c12 -17 25 -32 31 -32 5 0 2 7 -6 16 -22
21 -37 50 -30 57 8 8 33 -16 27 -25 -2 -5 1 -8 6 -8 16 0 13 16 -4 30 -15 13
-12 30 6 30 6 0 7 -5 3 -12 -4 -7 -3 -8 5 -4 12 7 6 26 -8 26 -4 0 -17 -10
-29 -23z"/>
<path d="M6450 8461 c0 -5 7 -12 16 -15 14 -5 15 -4 4 9 -14 17 -20 19 -20 6z"/>
<path d="M6466 8414 c-8 -21 -8 -21 10 -28 14 -5 15 -4 5 8 -7 8 -8 17 -3 20
5 3 14 -6 20 -19 7 -14 17 -25 24 -25 9 0 10 3 2 8 -6 4 -16 17 -23 30 -14 26
-26 28 -35 6z"/>
<path d="M6493 8224 c-12 -13 -19 -24 -16 -24 4 0 2 -5 -5 -12 -18 -18 -14
-37 7 -35 11 0 17 5 15 9 -3 4 -1 8 5 8 5 0 12 -8 14 -17 2 -10 4 -4 3 14 l-1
32 -22 -21 c-31 -29 -29 -10 2 26 14 16 25 33 25 38 0 11 -1 10 -27 -18z"/>
<path d="M6514 8095 c-4 -8 -9 -13 -13 -10 -5 2 -18 -10 -30 -28 l-22 -32 24
27 c14 15 27 24 30 22 3 -3 10 4 17 15 6 12 8 21 5 21 -3 0 -8 -7 -11 -15z"/>
<path d="M6482 8037 l-21 -22 20 -33 c12 -17 25 -32 31 -32 5 0 2 7 -6 16 -22
21 -37 50 -30 57 8 8 33 -16 27 -25 -2 -5 1 -8 6 -8 16 0 13 16 -4 30 -15 13
-12 30 6 30 6 0 7 -5 3 -12 -4 -7 -3 -8 5 -4 12 7 6 26 -8 26 -4 0 -17 -10
-29 -23z"/>
<path d="M6450 7981 c0 -5 7 -12 16 -15 14 -5 15 -4 4 9 -14 17 -20 19 -20 6z"/>
<path d="M6466 7934 c-8 -21 -8 -21 10 -28 14 -5 15 -4 5 8 -7 8 -8 17 -3 20
5 3 14 -6 20 -19 7 -14 17 -25 24 -25 9 0 10 3 2 8 -6 4 -16 17 -23 30 -14 26
-26 28 -35 6z"/>
<path d="M6493 7744 c-12 -13 -19 -24 -16 -24 4 0 2 -5 -5 -12 -18 -18 -14
-37 7 -35 11 0 17 5 15 9 -3 4 -1 8 5 8 5 0 12 -8 14 -17 2 -10 4 -4 3 14 l-1
32 -22 -21 c-31 -29 -29 -10 2 26 14 16 25 33 25 38 0 11 -1 10 -27 -18z"/>
<path d="M6514 7615 c-4 -8 -9 -13 -13 -10 -5 2 -18 -10 -30 -28 l-22 -32 24
27 c14 15 27 24 30 22 3 -3 10 4 17 15 6 12 8 21 5 21 -3 0 -8 -7 -11 -15z"/>
<path d="M6482 7557 l-21 -22 20 -33 c12 -17 25 -32 31 -32 5 0 2 7 -6 16 -22
21 -37 50 -30 57 8 8 33 -16 27 -25 -2 -5 1 -8 6 -8 16 0 13 16 -4 30 -15 13
-12 30 6 30 6 0 7 -5 3 -12 -4 -7 -3 -8 5 -4 12 7 6 26 -8 26 -4 0 -17 -10
-29 -23z"/>
<path d="M6450 7501 c0 -5 7 -12 16 -15 14 -5 15 -4 4 9 -14 17 -20 19 -20 6z"/>
<path d="M6466 7454 c-8 -21 -8 -21 10 -28 14 -5 15 -4 5 8 -7 8 -8 17 -3 20
5 3 14 -6 20 -19 7 -14 17 -25 24 -25 9 0 10 3 2 8 -6 4 -16 17 -23 30 -14 26
-26 28 -35 6z"/>
<path d="M6493 7264 c-12 -13 -19 -24 -16 -24 4 0 2 -5 -5 -12 -18 -18 -14
-37 7 -35 11 0 17 5 15 9 -3 4 -1 8 5 8 5 0 12 -8 14 -17 2 -10 4 -4 3 14 l-1
32 -22 -21 c-31 -29 -29 -10 2 26 14 16 25 33 25 38 0 11 -1 10 -27 -18z"/>
<path d="M6514 7135 c-4 -8 -9 -13 -13 -10 -5 2 -18 -10 -30 -28 l-22 -32 24
27 c14 15 27 24 30 22 3 -3 10 4 17 15 6 12 8 21 5 21 -3 0 -8 -7 -11 -15z"/>
<path d="M6480 7075 c-13 -14 -20 -25 -16 -25 5 0 3 -7 -4 -15 -11 -13 -10
-14 4 -9 10 4 15 12 12 19 -2 7 -2 16 1 19 7 6 28 -14 36 -34 4 -12 6 -12 6 1
1 9 -6 22 -14 29 -15 13 -12 30 6 30 6 0 7 -5 3 -12 -4 -7 -3 -8 5 -4 12 7 6
26 -8 26 -4 0 -18 -11 -31 -25z"/>
<path d="M6482 7023 c-7 -2 -17 -14 -23 -26 -9 -20 -9 -20 4 -4 8 9 19 17 26
17 6 0 11 5 11 10 0 6 -1 10 -2 9 -2 0 -9 -3 -16 -6z"/>
<path d="M6514 6975 c-4 -8 -9 -13 -13 -10 -5 2 -18 -10 -30 -28 l-22 -32 24
27 c14 15 27 24 30 22 3 -3 10 4 17 15 6 12 8 21 5 21 -3 0 -8 -7 -11 -15z"/>
<path d="M6482 6917 l-21 -22 20 -33 c12 -17 25 -32 31 -32 5 0 2 7 -6 16 -22
21 -37 50 -30 57 8 8 33 -16 27 -25 -2 -5 1 -8 6 -8 16 0 13 16 -4 30 -15 13
-12 30 6 30 6 0 7 -5 3 -12 -4 -7 -3 -8 5 -4 12 7 6 26 -8 26 -4 0 -17 -10
-29 -23z"/>
<path d="M6450 6861 c0 -5 7 -12 16 -15 14 -5 15 -4 4 9 -14 17 -20 19 -20 6z"/>
<path d="M6466 6814 c-8 -21 -8 -21 10 -28 14 -5 15 -4 5 8 -7 8 -8 17 -3 20
5 3 14 -6 20 -19 7 -14 17 -25 24 -25 9 0 10 3 2 8 -6 4 -16 17 -23 30 -14 26
-26 28 -35 6z"/>
<path d="M6493 6624 c-12 -13 -19 -24 -16 -24 4 0 2 -5 -5 -12 -18 -18 -14
-37 7 -35 11 0 17 5 15 9 -3 4 -1 8 5 8 5 0 12 -8 14 -17 2 -10 4 -4 3 14 l-1
32 -22 -21 c-31 -29 -29 -10 2 26 14 16 25 33 25 38 0 11 -1 10 -27 -18z"/>
<path d="M6514 6495 c-4 -8 -9 -13 -13 -10 -5 2 -18 -10 -30 -28 l-22 -32 24
27 c14 15 27 24 30 22 3 -3 10 4 17 15 6 12 8 21 5 21 -3 0 -8 -7 -11 -15z"/>
<path d="M6482 6437 l-21 -22 20 -33 c12 -17 25 -32 31 -32 5 0 2 7 -6 16 -22
21 -37 50 -30 57 8 8 33 -16 27 -25 -2 -5 1 -8 6 -8 16 0 13 16 -4 30 -15 13
-12 30 6 30 6 0 7 -5 3 -12 -4 -7 -3 -8 5 -4 12 7 6 26 -8 26 -4 0 -17 -10
-29 -23z"/>
<path d="M6450 6381 c0 -5 7 -12 16 -15 14 -5 15 -4 4 9 -14 17 -20 19 -20 6z"/>
<path d="M6466 6334 c-8 -21 -8 -21 10 -28 14 -5 15 -4 5 8 -7 8 -8 17 -3 20
5 3 14 -6 20 -19 7 -14 17 -25 24 -25 9 0 10 3 2 8 -6 4 -16 17 -23 30 -14 26
-26 28 -35 6z"/>
<path d="M1966 6308 c3 -4 -4 -12 -13 -18 -17 -11 -17 -11 0 -6 11 4 17 1 15
-7 -2 -6 2 -14 7 -17 6 -3 10 4 10 15 0 11 7 20 15 20 8 0 21 4 28 9 7 4 16 5
19 2 4 -3 2 -6 -4 -6 -13 0 -11 -42 2 -53 6 -4 -2 -5 -17 -3 -18 3 -28 0 -28
-7 0 -8 -3 -8 -8 -2 -8 12 -56 19 -49 7 3 -4 -6 -7 -19 -7 -13 0 -24 4 -24 8
0 4 -10 3 -21 -4 -17 -9 -20 -8 -14 2 6 8 4 10 -5 4 -7 -4 -48 -9 -92 -11 -43
-2 -83 -6 -88 -9 -6 -3 -10 0 -10 7 0 10 -2 10 -8 1 -4 -7 -25 -10 -50 -9 -23
2 -39 0 -36 -3 3 -3 17 -6 32 -6 14 0 27 -6 30 -14 3 -8 0 -11 -7 -7 -17 11
-13 0 6 -15 14 -12 15 -12 9 -1 -7 11 -4 12 13 3 27 -15 27 -19 -4 -16 -14 2
-25 -2 -25 -8 0 -7 -4 -6 -9 2 -8 13 -12 13 -26 1 -14 -12 -16 -12 -13 1 1 7
-2 14 -7 14 -6 0 -9 -3 -8 -7 4 -10 4 -10 -92 -13 -44 -2 -82 -4 -84 -4 -2 -1
1 -7 8 -14 8 -10 7 -17 -2 -26 -10 -11 -9 -13 3 -9 8 3 15 12 14 19 -1 8 7 15
17 15 17 0 17 -2 -3 -23 -30 -32 -10 -29 25 5 17 15 26 20 22 12 -14 -25 -48
-45 -80 -47 -16 -2 -36 -5 -42 -8 -7 -2 -13 0 -13 5 0 5 -7 7 -15 4 -8 -4 -12
-11 -9 -16 4 -6 -1 -6 -13 1 -14 7 -24 7 -33 -2 -10 -9 -11 -9 -6 1 4 6 2 12
-3 12 -6 0 -11 -5 -11 -11 0 -5 -6 -7 -12 -3 -10 6 -10 4 -2 -7 12 -15 12 -54
1 -65 -4 -4 -7 1 -7 12 0 10 -4 15 -8 9 -8 -11 -34 -16 -98 -18 -34 -2 -40 -5
-40 -22 1 -11 6 -27 10 -35 5 -8 6 -12 1 -8 -4 4 -13 0 -20 -8 -9 -13 -16 -14
-33 -5 -14 7 -23 8 -27 1 -4 -6 -11 -7 -17 -4 -6 4 -6 -2 1 -15 8 -14 8 -21 1
-21 -5 0 -10 5 -10 12 0 6 -2 9 -5 6 -9 -8 6 -38 16 -32 5 3 6 -2 3 -10 -3 -9
-10 -14 -14 -11 -5 3 -11 1 -15 -5 -4 -6 -13 -7 -23 -1 -12 6 -24 5 -36 -5
-12 -9 -23 -10 -31 -4 -6 5 -16 5 -25 0 -13 -8 -13 -10 -1 -10 11 0 10 -3 -3
-13 -17 -13 -17 -14 0 -28 11 -8 15 -9 10 -2 -4 8 -2 12 6 10 7 -2 10 -2 6 0
-10 6 -10 23 0 22 4 -1 9 0 12 1 3 1 13 3 23 5 14 3 16 0 8 -9 -6 -7 -8 -16
-5 -19 12 -12 -6 -40 -19 -30 -16 12 -57 14 -57 3 0 -5 -17 -8 -39 -6 -36 3
-38 2 -36 -24 1 -15 6 -33 9 -39 5 -7 2 -10 -6 -9 -7 2 -12 -3 -10 -10 2 -10
-2 -10 -16 -3 -10 6 -28 8 -39 5 -20 -6 -21 -10 -25 -111 0 -25 -7 -44 -14
-47 -8 -3 -13 0 -11 6 1 6 -4 13 -12 16 -9 3 -11 0 -7 -7 4 -6 4 -11 -1 -10
-25 4 -35 -3 -30 -22 3 -13 1 -19 -6 -16 -7 3 -11 11 -9 18 2 8 0 11 -4 6 -4
-4 -8 -16 -9 -26 -1 -13 4 -17 16 -14 14 4 16 0 12 -17 -4 -14 -8 -18 -13 -10
-6 9 -9 9 -15 1 -5 -9 -11 -9 -23 1 -13 11 -14 11 -7 -1 6 -11 4 -13 -8 -8
-12 4 -15 0 -14 -16 0 -12 6 -25 12 -29 6 -5 5 -8 -3 -8 -7 0 -11 -4 -8 -9 8
-12 -13 -19 -51 -16 -28 1 -31 -1 -22 -16 6 -12 5 -20 -1 -24 -6 -4 -8 -11 -4
-16 4 -6 11 -6 20 2 8 7 19 8 27 3 7 -5 2 1 -11 12 l-24 21 26 -2 c15 -2 26 2
26 8 0 7 4 6 10 -3 5 -9 5 -19 0 -24 -4 -4 -6 -14 -4 -21 3 -7 1 -16 -5 -20
-6 -3 -11 -2 -11 3 0 7 -10 8 -52 3 -4 -1 -5 -12 -2 -26 3 -16 0 -25 -8 -25
-8 0 -9 -3 -3 -8 18 -13 17 -35 -1 -28 -14 5 -15 4 -4 -9 7 -8 10 -21 7 -29
-3 -7 0 -19 6 -26 9 -10 9 -11 0 -6 -8 4 -13 2 -13 -6 0 -10 -2 -10 -9 1 -6
10 -10 10 -16 1 -6 -9 -10 -9 -16 1 -11 18 -11 32 0 25 13 -8 41 4 41 18 0 6
-9 17 -19 23 -25 15 -41 -2 -46 -49 -3 -24 -2 -29 5 -18 6 9 10 10 10 3 0 -6
-5 -15 -10 -18 -6 -4 -8 -11 -5 -16 4 -5 0 -9 -7 -9 -8 0 -9 -3 -3 -8 14 -10
17 -32 5 -32 -7 0 -7 -7 1 -21 6 -12 7 -19 2 -16 -5 4 -9 -20 -8 -55 2 -48 -2
-64 -16 -76 -20 -17 -27 -38 -9 -27 6 3 10 1 10 -4 0 -6 -5 -11 -12 -11 -9 0
-9 -3 0 -12 7 -7 12 -16 12 -21 0 -5 -6 -2 -14 5 -7 8 -13 25 -14 39 0 40 -1
47 -15 52 -9 3 -12 -6 -11 -33 1 -21 5 -43 9 -50 5 -8 4 -11 -2 -7 -17 10 -10
-66 7 -81 13 -11 13 -11 -1 -6 -15 5 -17 -19 -16 -263 1 -177 4 -270 11 -275
8 -5 7 -8 0 -8 -10 0 -13 -77 -4 -87 2 -2 3 -9 4 -15 0 -7 9 -13 19 -14 12 -1
13 -1 2 3 -8 2 -13 8 -10 13 3 5 12 7 20 3 18 -6 20 13 3 23 -7 5 -8 2 -3 -7
6 -11 5 -11 -5 -2 -10 9 -10 15 4 28 19 19 22 32 3 17 -14 -12 -31 -4 -35 16
-2 9 3 10 15 4 10 -5 23 -7 30 -5 6 2 14 -1 18 -6 3 -6 1 -11 -6 -11 -8 0 -8
-4 1 -15 11 -13 10 -15 -6 -9 -18 5 -18 5 -2 -9 10 -8 15 -17 11 -20 -3 -4 -1
-7 6 -7 7 0 9 -5 6 -10 -4 -6 -11 -8 -16 -5 -5 4 -6 -3 0 -17 4 -13 7 -33 6
-45 -1 -13 2 -23 7 -23 4 0 8 -5 8 -11 0 -5 -3 -8 -7 -6 -5 3 -9 -6 -9 -19 -1
-13 2 -24 6 -24 5 0 7 -21 4 -47 -3 -34 -1 -43 6 -33 5 8 10 11 10 6 0 -6 7
-1 15 10 12 15 14 16 9 2 -4 -13 -1 -16 15 -13 11 2 24 -1 27 -7 5 -7 2 -8 -6
-3 -9 5 -10 2 -5 -14 5 -16 1 -27 -12 -36 -17 -13 -17 -14 2 -9 17 4 20 0 21
-25 1 -21 -2 -28 -10 -24 -6 4 -5 -1 2 -10 8 -9 11 -20 8 -25 -7 -12 26 -12
42 1 8 6 12 6 12 -2 0 -6 6 -10 13 -9 6 2 11 -3 9 -10 -1 -7 -3 -24 -4 -37 -1
-13 -7 -21 -13 -19 -5 3 -2 -1 7 -9 10 -8 16 -23 13 -36 -2 -13 4 -30 17 -43
l21 -21 -5 21 c-4 12 -2 25 3 28 5 3 9 2 8 -3 -4 -21 2 -32 15 -27 8 3 17 0
22 -7 5 -8 3 -10 -7 -4 -11 6 -11 5 -2 -5 7 -8 9 -19 4 -29 -12 -22 7 -37 42
-36 21 2 31 -4 37 -19 4 -12 4 -26 -1 -31 -4 -6 -4 -17 1 -25 6 -8 10 -10 10
-5 0 6 5 3 10 -5 8 -12 10 -12 10 5 0 17 2 17 10 5 5 -8 10 -11 10 -7 0 4 9 3
19 -3 19 -10 22 -33 6 -47 -4 -4 -5 -3 -2 3 4 7 -1 18 -11 25 -15 12 -16 12
-5 -2 7 -9 10 -18 8 -21 -12 -11 43 -36 74 -33 17 1 30 0 27 -3 -3 -3 0 -12 7
-20 8 -10 8 -13 1 -9 -7 4 -14 1 -17 -7 -8 -21 24 -43 61 -41 23 2 32 -2 28
-10 -5 -15 32 -28 48 -17 6 3 0 9 -14 12 l-25 6 28 6 c15 3 25 3 22 0 -2 -3 0
-11 7 -19 6 -7 8 -16 4 -20 -3 -3 -6 -1 -6 6 0 7 -5 9 -10 6 -8 -5 -7 -12 2
-23 12 -16 11 -16 -6 -2 -15 12 -20 12 -23 2 -3 -6 -9 -9 -15 -6 -6 4 -5 10 3
16 12 8 12 9 0 6 -8 -2 -15 -11 -17 -20 -1 -12 5 -15 27 -13 16 2 31 0 34 -5
3 -5 14 -7 25 -5 11 2 22 -1 26 -6 4 -7 10 -6 18 0 9 8 18 6 32 -5 10 -8 13
-13 7 -9 -7 3 -13 1 -13 -5 0 -6 -5 -8 -12 -4 -7 4 -8 3 -4 -5 4 -6 11 -9 16
-6 4 3 6 -5 2 -17 -5 -21 -4 -22 13 -8 10 8 16 10 12 4 -4 -7 0 -14 7 -17 8
-3 16 -1 19 6 2 8 12 6 31 -7 16 -10 26 -13 22 -8 -4 6 2 10 14 9 11 -1 20 -6
20 -12 0 -5 5 -3 10 5 8 13 11 13 22 1 11 -11 11 -13 0 -7 -10 6 -11 1 -6 -18
4 -18 2 -26 -7 -26 -11 0 -11 -3 1 -10 20 -13 33 -12 24 2 -5 7 -3 8 7 2 8 -5
21 -9 29 -9 8 0 21 -4 28 -8 7 -5 12 -3 12 5 0 10 2 10 8 1 4 -7 18 -11 30 -8
12 2 22 0 22 -6 0 -11 22 -8 31 5 11 14 29 -3 22 -22 -6 -15 -5 -16 13 -2 10
8 16 10 12 6 -4 -5 -2 -16 5 -25 11 -14 10 -14 -5 -2 -15 11 -19 11 -23 -1 -3
-8 -12 -15 -20 -15 -20 0 -19 15 0 19 13 2 12 5 -4 15 -15 9 -20 9 -24 0 -6
-17 13 -64 21 -51 6 9 24 11 37 4 12 -6 31 -6 40 1 6 4 17 4 24 -1 8 -4 21 -6
29 -2 10 3 13 1 8 -6 -5 -9 -1 -9 17 -3 16 6 28 6 36 -2 8 -8 11 -8 11 2 0 24
18 1 22 -28 3 -22 0 -31 -11 -35 -9 -2 3 -3 27 -1 23 2 44 0 46 -4 2 -3 29 -6
60 -5 38 2 54 -1 50 -8 -5 -7 -2 -8 7 -2 18 11 89 13 83 2 -3 -4 1 -8 8 -8 8
0 7 -5 -5 -17 -9 -9 -20 -13 -24 -9 -4 4 -1 11 6 15 8 5 9 11 3 15 -18 11 -23
-26 -7 -44 16 -18 38 -21 51 -7 12 12 26 8 18 -5 -4 -6 -3 -8 4 -4 6 3 14 1
18 -5 5 -8 13 -4 26 12 14 16 18 18 14 7 -3 -10 0 -18 7 -19 7 -1 19 -2 27 -3
8 0 18 4 22 9 5 7 8 7 8 0 0 -7 38 -10 100 -10 55 1 96 -2 90 -5 -5 -3 -5 -11
0 -19 9 -15 2 -43 -9 -37 -3 2 -15 0 -26 -5 -16 -6 -14 -7 10 -6 17 1 33 6 37
11 10 15 49 14 55 -1 3 -8 22 -13 52 -13 118 0 211 -5 211 -13 0 -5 -7 -6 -16
-3 -14 5 -15 4 -5 -8 7 -8 19 -12 27 -9 8 3 14 3 14 0 0 -16 -34 -13 -51 4
-11 11 -24 17 -27 13 -4 -3 -1 -9 6 -11 6 -3 9 -9 6 -14 -3 -6 -11 -6 -20 2
-7 6 -11 15 -8 20 3 5 -2 6 -11 3 -14 -6 -13 -9 5 -21 12 -8 19 -21 16 -29 -8
-20 7 -24 29 -7 16 13 17 15 3 10 -17 -6 -24 3 -12 16 11 10 34 -5 34 -22 0
-19 51 -22 58 -3 2 7 -6 9 -23 6 -17 -3 -24 -1 -20 6 8 14 47 6 54 -11 4 -10
28 -14 91 -16 95 -2 119 -5 139 -17 11 -7 13 -5 7 9 -5 15 -4 16 9 5 13 -11
13 -15 -6 -31 -25 -22 -33 -24 -23 -7 4 7 3 8 -5 4 -7 -4 -10 -2 -9 4 2 7 -5
14 -15 15 -9 2 -15 -1 -11 -6 7 -12 -10 -11 -22 1 -7 7 -11 6 -11 -4 0 -8 3
-15 6 -14 18 2 33 -3 28 -9 -4 -3 -2 -12 4 -20 9 -10 15 -10 25 -2 8 6 14 8
14 4 0 -4 7 -2 15 5 13 11 14 10 10 -2 -5 -12 0 -15 25 -12 17 2 36 6 41 9 5
4 9 1 9 -6 0 -7 3 -9 7 -6 3 4 12 2 20 -4 10 -9 13 -8 13 1 0 9 4 9 17 -1 14
-12 15 -12 9 -1 -7 11 -4 12 11 3 11 -6 22 -9 24 -8 2 1 -2 -3 -10 -10 -8 -7
-17 -10 -21 -8 -4 2 -7 -2 -7 -10 0 -10 4 -12 12 -5 14 12 26 3 19 -14 -4 -11
2 -12 123 -19 34 -1 65 -6 69 -9 3 -4 12 -4 19 -2 7 3 16 1 20 -5 3 -6 0 -11
-7 -11 -8 -1 -5 -7 7 -17 16 -13 17 -15 3 -10 -10 4 -18 1 -18 -5 0 -7 -4 -7
-13 1 -8 6 -18 7 -22 3 -5 -4 -5 -2 -1 5 4 7 12 10 20 7 7 -3 13 2 13 10 0 8
-5 12 -10 9 -5 -3 -12 -1 -16 5 -4 7 -12 8 -21 2 -10 -6 -11 -10 -3 -10 9 0
10 -7 2 -26 -5 -15 -7 -29 -4 -32 3 -3 5 0 5 6 0 7 15 11 35 10 19 -1 35 -5
35 -9 0 -4 12 -7 28 -7 49 1 67 -2 57 -10 -13 -9 -16 -42 -3 -42 5 0 6 -5 3
-10 -7 -11 -6 -11 40 -15 17 -1 34 -3 38 -4 10 -1 5 -34 -8 -43 -5 -4 -2 -10
8 -14 9 -3 17 -10 17 -16 0 -5 -4 -6 -10 -3 -6 3 -7 -1 -4 -9 3 -9 11 -16 16
-16 6 0 5 -6 -2 -15 -6 -8 -9 -19 -5 -26 6 -8 10 -8 15 2 5 7 18 14 29 16 23
3 22 9 25 -132 0 -44 5 -83 11 -87 7 -5 7 -8 0 -8 -6 0 -10 -49 -10 -126 0
-127 -6 -164 -25 -164 -6 0 -8 6 -4 12 5 9 2 9 -9 -1 -9 -7 -17 -9 -17 -4 0 5
-7 10 -15 10 -13 0 -13 -3 2 -19 9 -10 12 -18 8 -18 -5 0 0 -7 11 -16 10 -8
14 -13 7 -10 -6 3 -19 3 -28 0 -13 -5 -14 -8 -3 -15 9 -6 7 -9 -9 -9 -12 0
-24 -4 -27 -9 -4 -5 4 -7 16 -4 22 4 23 4 4 -11 -11 -9 -15 -16 -9 -16 19 0
23 -28 6 -42 -14 -11 -15 -10 -8 12 l7 25 -22 -23 c-17 -19 -24 -21 -31 -11
-6 11 -11 10 -26 -2 -10 -8 -28 -14 -40 -13 -12 0 -20 -2 -18 -7 3 -4 -1 -10
-7 -12 -10 -4 -10 -6 -1 -6 7 -1 10 -8 7 -19 -5 -14 -4 -15 5 -2 9 13 11 13
11 0 1 -12 3 -11 11 3 6 9 15 14 21 11 6 -4 8 -3 5 3 -4 6 0 19 9 29 14 18 14
17 3 -6 -13 -26 -13 -28 2 -46 6 -7 -3 -10 -27 -9 -20 1 -42 -4 -50 -12 -8 -8
-14 -10 -14 -5 0 9 -32 8 -83 -1 -22 -4 -47 -27 -29 -27 7 0 12 4 12 9 0 5 8
8 18 6 9 -2 19 -4 22 -4 3 -1 -2 -6 -10 -11 -8 -5 -10 -10 -4 -10 22 0 10 -26
-13 -28 -18 -1 -27 6 -38 31 -8 17 -14 26 -15 19 0 -7 4 -22 10 -32 7 -13 6
-19 -6 -24 -10 -4 -13 -2 -8 7 6 9 4 9 -8 -1 -13 -10 -17 -10 -21 0 -4 10 -6
10 -6 1 -1 -7 -6 -13 -12 -13 -5 0 -7 5 -3 11 4 8 1 8 -12 1 -11 -5 -53 -9
-95 -8 -58 1 -75 -2 -72 -12 3 -7 0 -10 -8 -7 -8 3 -20 -4 -27 -15 -7 -12 -8
-20 -2 -20 5 0 10 5 10 11 0 5 5 7 10 4 6 -4 7 -11 4 -17 -4 -7 -2 -8 5 -4 6
4 8 12 5 18 -5 7 -2 8 6 3 9 -5 11 -4 6 3 -5 8 -1 10 9 5 12 -4 13 -8 5 -13
-9 -5 -9 -9 -1 -14 10 -6 15 5 13 25 -1 3 10 11 23 17 18 8 26 8 31 0 4 -6 3
-8 -3 -5 -17 10 -38 -20 -25 -36 9 -10 -64 -13 -384 -14 -294 -1 -394 2 -394
10 0 8 -3 8 -8 2 -8 -12 -113 -15 -106 -3 7 11 -3 10 -28 -3 -16 -8 -19 -8
-13 1 5 9 1 10 -16 5 -17 -4 -20 -3 -10 3 8 6 11 17 8 26 -5 14 -3 15 13 6 25
-13 33 -13 24 2 -4 7 -3 8 4 4 8 -5 10 -1 5 10 -4 11 -8 13 -11 6 -2 -7 -8
-12 -13 -12 -6 0 -8 4 -5 8 2 4 -24 7 -60 7 -35 -1 -64 3 -64 8 0 4 -4 5 -10
2 -14 -9 -80 -13 -75 -4 3 3 -6 7 -20 7 -15 0 -22 -5 -18 -12 3 -6 0 -5 -8 2
-12 11 -12 14 0 22 11 6 9 9 -9 12 -13 1 -25 9 -26 16 -1 7 0 8 3 2 2 -5 12
-10 21 -10 15 0 15 2 2 10 -12 8 -12 10 -1 10 8 0 11 3 8 6 -3 4 -48 8 -99 10
-51 1 -94 4 -95 5 -3 1 -20 4 -55 8 -9 1 -8 4 2 11 8 5 11 10 6 10 -4 0 -2 10
6 23 15 22 15 22 -38 21 -30 -1 -51 2 -49 7 3 4 -4 7 -15 6 -11 -1 -20 -5 -20
-9 0 -4 -7 -5 -15 -1 -20 7 -9 18 18 18 16 0 22 6 21 23 -1 12 4 22 10 22 6 0
6 4 -2 9 -8 4 -31 6 -53 4 -24 -3 -39 -1 -39 6 0 13 -22 10 -32 -4 -5 -6 -8
-5 -8 3 0 7 -4 11 -8 8 -4 -2 -13 4 -20 14 -7 11 -8 21 -2 25 21 13 -2 32 -35
30 -19 -2 -35 2 -35 7 0 6 -6 8 -14 5 -8 -3 -20 1 -26 9 -9 10 -9 14 -1 14 6
0 11 -5 11 -11 0 -8 4 -8 14 0 34 28 -7 67 -52 50 -14 -6 -21 -5 -17 0 3 5 1
12 -5 16 -6 3 -8 17 -6 29 2 13 0 29 -5 37 -7 10 -8 5 -5 -14 3 -19 1 -27 -7
-24 -7 2 -11 11 -9 21 4 21 -24 21 -32 0 -6 -15 -4 -15 11 -3 16 13 17 12 4
-3 -19 -26 -32 -22 -27 7 3 17 0 25 -10 26 -8 1 -20 2 -26 3 -7 1 -20 -1 -29
-5 -11 -5 -16 -3 -16 7 0 8 6 13 14 10 7 -3 13 -1 13 4 0 12 22 9 32 -5 17
-23 13 3 -4 30 -12 19 -17 23 -14 10 5 -17 1 -21 -19 -23 -26 -2 -34 12 -13
24 7 5 8 3 3 -6 -5 -9 -4 -11 3 -6 16 10 15 26 -2 26 -18 0 -29 29 -16 45 17
20 -15 41 -37 24 -15 -12 -16 -12 -9 5 6 19 6 19 -12 3 -10 -9 -23 -14 -27
-10 -5 5 -4 1 2 -7 6 -8 9 -23 8 -33 -2 -9 1 -15 6 -11 5 3 7 9 4 14 -3 4 6 7
19 6 13 0 22 -4 19 -9 -2 -4 1 -7 7 -7 6 0 8 -5 4 -11 -5 -8 -9 -8 -14 1 -4 7
-13 9 -19 6 -18 -12 -52 -16 -46 -5 4 5 1 9 -4 9 -6 0 -11 -4 -11 -9 0 -5 -15
-8 -34 -7 -25 2 -33 0 -29 -10 3 -8 8 -12 12 -9 4 2 6 -6 5 -18 -1 -12 -3 -26
-3 -31 -1 -5 -4 -6 -7 -3 -4 3 -15 2 -25 -3 -12 -7 -20 -7 -24 0 -13 21 -34
-11 -32 -46 1 -18 -2 -33 -8 -31 -5 1 -9 6 -7 11 2 5 -3 4 -11 -2 -8 -7 -16
-9 -19 -6 -3 3 -14 -6 -24 -19 -19 -24 -25 -27 -46 -27 -6 0 -8 -3 -4 -7 4 -4
14 -8 22 -8 7 0 13 -4 11 -10 -1 -5 -17 -10 -35 -9 -17 0 -32 -3 -32 -7 0 -4
-17 -6 -39 -4 -35 3 -38 1 -35 -21 3 -32 -6 -65 -17 -58 -5 3 -9 -1 -9 -8 0
-9 -3 -9 -10 2 -5 8 -10 11 -10 6 0 -5 -8 -2 -17 5 -11 10 -14 10 -9 2 5 -9 1
-13 -11 -13 -11 0 -14 -3 -7 -8 25 -16 -3 -91 -28 -76 -5 3 -19 7 -31 8 -16 2
-23 -3 -23 -16 0 -10 4 -18 9 -18 5 0 4 -7 -3 -15 -10 -12 -9 -15 5 -15 37 0
4 -13 -35 -14 -22 -1 -39 -4 -38 -7 2 -3 -3 -13 -10 -21 -7 -9 -9 -18 -3 -20
5 -1 3 -11 -5 -22 -8 -11 -14 -14 -14 -8 0 10 -5 10 -21 1 -12 -6 -19 -7 -16
-2 4 5 0 10 -8 10 -8 0 -12 -4 -9 -9 3 -4 0 -8 -6 -8 -6 0 -8 -5 -5 -11 4 -5
8 -21 9 -33 3 -21 -1 -24 -33 -24 -20 0 -45 -1 -56 -2 l-20 -1 20 -9 c11 -5
15 -9 8 -9 -7 -1 -10 -9 -7 -18 4 -14 1 -13 -14 4 -16 18 -21 20 -26 8 -3 -8
-11 -13 -18 -11 -7 1 -10 1 -5 -1 4 -3 4 -10 0 -16 -14 -23 -13 -95 2 -107 11
-9 15 -9 15 -1 0 9 6 9 22 0 21 -11 22 -11 9 4 -11 14 -11 18 3 23 9 4 20 4
23 0 4 -3 -2 -6 -12 -6 -15 0 -15 -2 -4 -16 7 -9 14 -28 15 -42 1 -15 2 -32 3
-38 0 -7 16 -11 39 -9 l39 2 -3 -41 c-3 -36 0 -42 17 -43 11 -1 17 2 14 8 -4
5 5 4 19 -3 14 -6 27 -19 27 -30 3 -35 4 -39 18 -47 8 -5 26 -7 40 -4 14 2 22
1 18 -3 -4 -4 -2 -13 4 -21 14 -17 -3 -17 -20 0 -10 10 -11 9 -6 -5 4 -9 13
-19 21 -22 7 -3 11 -12 8 -19 -3 -10 2 -14 18 -14 53 1 64 -3 65 -23 1 -13 -2
-18 -10 -13 -7 3 -3 -4 8 -17 12 -14 14 -20 5 -15 -9 5 -12 5 -7 -1 5 -5 25
-9 45 -9 39 0 49 -16 28 -44 -9 -12 -7 -13 6 -8 10 3 18 2 18 -3 0 -6 -6 -10
-12 -11 -7 0 -4 -4 7 -8 25 -10 47 -3 38 13 -3 6 4 2 16 -9 13 -11 25 -19 27
-17 10 6 24 1 24 -9 0 -8 -6 -7 -17 2 -9 8 -14 9 -10 2 4 -6 1 -14 -5 -16 -10
-4 -10 -6 -1 -6 7 -1 10 -7 7 -15 -3 -8 -1 -17 5 -21 6 -3 11 -1 11 4 0 6 5
11 11 11 5 0 8 -4 4 -9 -3 -6 6 -8 21 -5 17 3 23 1 19 -7 -6 -8 -2 -8 12 0 11
6 24 7 28 3 3 -4 11 -8 16 -8 5 -1 14 -2 19 -3 6 0 8 -12 4 -27 -4 -15 -3 -25
2 -22 5 3 18 1 29 -3 18 -9 18 -9 -2 -5 -13 2 -25 0 -28 -5 -3 -5 16 -9 42 -9
26 0 59 -2 73 -4 14 -2 30 -4 36 -5 14 -1 14 -31 0 -31 -6 0 -5 -4 2 -9 8 -4
13 -11 13 -15 -3 -18 1 -22 19 -22 11 0 20 4 20 9 0 4 6 5 12 0 16 -10 19 -10
66 -12 31 -1 38 -5 39 -22 2 -18 0 -19 -15 -7 -15 12 -16 11 -3 -4 7 -10 10
-18 6 -18 -4 0 -2 -7 5 -15 8 -10 17 -12 30 -5 11 6 21 5 30 -3 10 -10 11 -9
5 3 -7 12 -6 13 6 4 8 -6 23 -10 34 -8 11 1 23 -2 27 -9 6 -9 8 -9 8 0 0 7 6
10 13 8 21 -9 76 -13 80 -6 2 3 2 1 1 -6 -2 -6 2 -14 9 -17 9 -3 9 -5 0 -5 -6
-1 -15 4 -18 9 -3 6 -12 10 -18 10 -7 -1 1 -11 16 -24 l28 -22 -30 0 c-23 0
-28 3 -20 12 6 8 6 14 0 18 -5 3 -11 3 -14 -1 -2 -5 -3 -3 -1 2 1 6 -7 12 -17
12 -17 2 -18 0 -4 -13 18 -19 20 -38 3 -28 -7 4 -9 3 -5 -2 8 -9 54 -13 178
-17 49 -1 76 -6 76 -14 0 -6 -7 -9 -16 -6 -10 3 -12 2 -5 -4 6 -4 10 -17 9
-29 -1 -18 3 -20 42 -18 24 2 43 -1 43 -6 0 -6 10 -6 23 -2 26 10 38 9 55 -1
7 -5 12 -3 12 4 0 8 4 8 13 1 8 -7 18 -7 27 -2 9 5 19 5 27 -2 8 -6 16 -8 20
-5 3 4 13 1 21 -6 9 -6 13 -7 9 -1 -7 11 122 12 141 0 6 -3 12 -1 14 4 2 6 11
1 20 -10 12 -13 14 -20 5 -21 -6 0 -3 -4 7 -8 19 -7 19 -8 -2 -13 -12 -4 -20
-2 -17 2 3 5 -3 7 -15 5 -11 -2 -22 1 -25 6 -4 5 -12 6 -18 3 -7 -4 -8 -3 -4
2 5 5 13 10 18 10 22 3 23 5 10 13 -20 13 -47 -15 -32 -33 6 -7 9 -15 7 -17
-3 -3 20 -4 50 -4 30 0 55 3 55 7 4 26 4 34 -2 38 -4 3 3 10 15 16 17 8 23 8
23 -2 0 -7 -4 -11 -8 -9 -4 3 -9 -2 -13 -10 -6 -17 10 -30 17 -15 3 6 4 5 3
-2 -2 -7 -9 -12 -15 -11 -6 2 -11 -2 -11 -7 0 -14 23 -12 39 2 9 9 12 9 7 1
-5 -9 102 -11 439 -11 438 0 445 0 434 19 -5 11 -14 17 -20 14 -5 -4 -9 -2 -9
3 0 12 49 12 56 1 6 -11 24 -2 24 12 0 5 -5 8 -11 6 -6 -1 -14 5 -16 13 -3 9
-1 11 4 5 12 -15 65 -17 56 -2 -4 7 0 7 10 -2 9 -7 17 -10 17 -5 0 5 45 9 101
9 55 0 103 3 106 8 2 4 9 5 14 2 18 -12 49 -14 49 -3 0 7 6 6 15 -2 8 -7 15
-8 15 -3 0 11 69 11 87 0 6 -4 14 -3 18 3 4 6 11 8 16 5 5 -4 6 2 2 12 -6 16
-4 16 17 -2 13 -11 20 -14 15 -5 -13 21 -13 50 -1 58 6 4 38 8 71 9 157 4 166
5 161 19 -3 8 0 14 7 14 8 0 8 3 2 8 -13 8 -13 22 -1 40 5 8 12 10 19 4 17
-12 55 -13 63 -1 3 6 12 5 22 -3 14 -11 15 -10 8 6 -6 18 -5 19 11 4 20 -17
43 -13 43 8 0 8 -6 14 -12 14 -9 0 -10 3 -2 8 6 4 10 14 9 22 -2 11 7 15 36
14 22 -1 42 3 45 8 4 6 10 5 15 -3 7 -12 9 -12 9 0 0 10 3 11 14 2 10 -8 16
-9 21 -1 3 6 10 8 14 6 4 -3 8 1 8 9 0 8 -4 12 -9 9 -4 -3 -8 0 -8 5 0 6 6 11
13 11 8 0 7 4 -3 10 -22 15 5 30 48 26 18 -1 35 1 38 5 2 5 12 5 22 2 9 -3 14
-3 10 1 -3 4 -14 9 -25 11 -10 2 -20 4 -22 4 -2 1 1 7 6 14 6 6 9 21 7 32 -3
20 -3 20 12 1 11 -16 11 -22 1 -28 -9 -6 -9 -8 1 -8 20 0 27 -3 37 -14 6 -6 9
-9 8 -7 -2 2 2 10 8 17 12 15 4 34 -14 34 -7 0 -6 -4 3 -10 8 -5 11 -12 7 -16
-9 -9 -37 15 -37 31 0 8 8 11 19 8 10 -3 30 3 44 12 21 13 30 14 47 5 12 -6
24 -9 28 -6 3 3 0 6 -6 6 -8 0 -9 7 -2 26 7 16 7 23 0 19 -14 -9 -12 4 3 19 7
8 20 10 32 6 11 -4 28 -3 38 2 15 7 16 12 6 24 -9 11 -8 14 2 14 9 0 10 3 4 8
-20 14 -14 30 10 27 27 -2 31 5 15 21 -7 7 -6 11 4 11 8 0 14 -5 13 -10 -1 -5
9 -11 23 -13 14 -2 20 -1 15 3 -15 11 -13 56 4 67 11 7 11 10 0 17 -11 7 -11
9 -1 9 7 0 15 -7 19 -16 5 -12 7 -13 14 -2 5 8 1 17 -14 25 -20 10 -20 12 -5
18 10 4 15 11 12 17 -3 5 -13 4 -22 -4 -14 -10 -15 -10 -5 2 14 15 46 24 38
10 -14 -23 13 -14 40 13 18 18 23 28 13 24 -14 -5 -17 -2 -14 16 3 12 5 24 5
27 1 3 10 6 20 6 11 0 18 -3 15 -7 -2 -4 7 -2 20 4 22 10 22 13 7 25 -9 7 -11
11 -4 8 17 -9 27 12 13 29 -8 10 -8 15 2 22 15 10 17 35 3 45 -6 5 -5 8 4 8
11 0 11 3 0 18 -12 15 -12 16 1 7 24 -17 86 -3 74 16 -3 5 0 9 7 9 7 0 5 6 -6
13 -12 9 -14 16 -7 21 6 4 8 14 5 23 -5 12 -2 15 9 11 9 -4 21 -1 27 5 8 8 11
6 12 -8 0 -11 3 -14 6 -7 2 6 8 10 12 8 3 -2 6 14 5 37 0 23 2 46 5 52 3 5 6
57 7 115 2 140 2 138 13 121 16 -25 47 -23 60 5 13 30 14 45 1 24 -11 -17 -6
62 5 80 3 5 1 10 -5 10 -6 0 -8 4 -5 10 11 17 11 90 0 90 -7 0 -7 3 0 8 6 4
10 29 9 55 0 39 2 47 15 42 14 -4 14 -4 1 7 -12 10 -15 34 -15 103 0 50 3 95
8 102 4 6 4 14 -1 17 -4 2 -7 58 -7 123 1 65 -1 122 -4 128 -9 17 -8 45 2 45
5 0 2 11 -7 25 -15 23 -15 24 1 18 12 -5 14 -3 8 7 -11 18 -13 70 -4 91 5 10
1 21 -11 32 -13 11 -20 12 -24 4 -3 -9 -7 -8 -15 3 -8 12 -10 11 -8 -7 0 -13
7 -25 15 -28 7 -2 10 0 7 5 -3 6 1 7 9 4 23 -9 19 -24 -4 -19 -12 2 -18 0 -15
-6 4 -5 11 -6 17 -3 7 5 8 2 3 -6 -6 -9 -4 -11 5 -5 9 6 11 4 6 -4 -5 -7 -11
-10 -14 -7 -3 3 -11 1 -17 -4 -9 -7 -17 -5 -26 7 -8 9 -9 14 -2 10 6 -4 14 -3
17 2 3 5 -1 12 -10 15 -13 5 -14 9 -4 21 7 8 9 15 4 15 -5 0 -10 33 -10 73 -1
39 -4 89 -8 110 -5 29 -3 36 6 31 7 -4 5 2 -5 13 -11 13 -26 19 -38 16 -20 -6
-17 -18 4 -18 7 0 12 -7 12 -15 0 -8 4 -21 9 -28 4 -7 5 -16 2 -19 -3 -4 -6
-1 -6 5 0 6 -10 16 -22 22 -21 10 -22 10 -5 -3 12 -10 14 -17 8 -22 -6 -3 -11
-1 -11 5 0 6 -4 9 -8 6 -8 -4 -10 14 -17 117 -1 20 -5 40 -8 43 -4 4 -2 14 3
23 16 30 -28 62 -50 36 -8 -10 -6 -17 7 -31 15 -14 15 -17 2 -12 -9 4 -16 1
-16 -7 0 -10 5 -11 18 -4 12 6 20 5 25 -3 4 -7 3 -8 -4 -4 -7 4 -12 3 -12 -2
0 -5 -7 -9 -16 -9 -19 0 -33 33 -29 70 2 15 -1 27 -6 27 -11 0 -7 23 6 32 6 5
6 8 -2 8 -7 0 -10 9 -8 21 4 17 2 19 -10 9 -12 -10 -15 -10 -15 1 0 11 -2 11
-10 -1 -8 -12 -10 -12 -10 -1 0 10 -3 11 -14 2 -11 -10 -13 -4 -12 33 2 50 -9
61 -49 46 -29 -11 -32 -7 -30 48 2 44 -3 50 -24 30 -11 -10 -13 -10 -7 0 4 6
3 12 -3 12 -5 0 -11 -4 -13 -10 -7 -22 -30 10 -31 44 -1 36 -2 37 -39 33 -39
-4 -53 9 -38 33 15 24 -7 49 -37 44 -24 -5 -25 -3 -12 13 13 17 13 17 -5 3
-24 -19 -44 -21 -42 -4 1 7 5 16 9 20 3 4 2 14 -3 24 -5 10 -6 21 -2 26 4 5
-2 2 -12 -6 -15 -11 -18 -12 -12 -1 7 10 4 12 -12 7 -15 -5 -25 -1 -34 13 -11
18 -13 18 -26 3 -9 -11 -11 -12 -6 -2 6 12 5 13 -7 4 -8 -6 -21 -11 -30 -11
-20 0 -20 37 1 55 8 8 10 11 3 8 -6 -4 -14 -2 -18 4 -3 5 -19 8 -36 6 -17 -2
-36 2 -43 10 -8 7 -16 10 -19 7 -11 -11 -57 -11 -64 -1 -3 6 -1 8 5 4 6 -3 13
-2 17 4 3 5 -2 10 -12 10 -13 0 -9 6 15 21 38 25 38 25 13 25 -11 0 -18 -3
-15 -7 2 -4 -3 -10 -12 -13 -8 -3 -13 -2 -10 3 6 10 -23 26 -39 22 -33 -9 -55
-7 -55 5 0 7 5 16 11 19 7 5 5 13 -5 24 -9 10 -14 20 -11 22 2 3 -5 5 -15 5
-11 0 -20 -4 -20 -8 0 -4 7 -8 16 -8 14 0 14 -3 4 -15 -13 -16 -31 -20 -29 -7
3 18 -2 35 -8 29 -3 -4 -13 -1 -21 6 -13 10 -15 9 -9 -8 6 -17 5 -18 -5 -5 -9
10 -32 16 -68 17 -81 2 -82 2 -75 13 4 6 12 7 18 3 7 -4 7 -1 -1 9 -13 16 -47
14 -38 -1 3 -4 0 -13 -6 -21 -8 -13 -9 -12 -5 2 4 9 -1 19 -10 22 -10 4 -13 2
-10 -7 3 -8 0 -14 -7 -14 -6 0 -12 8 -12 18 0 10 3 16 6 14 4 -2 12 5 20 15
12 16 15 17 24 5 8 -10 16 -12 26 -5 8 5 11 12 8 16 -10 9 -69 13 -63 4 3 -4
-2 -10 -10 -13 -9 -4 -12 -1 -9 7 5 13 -16 16 -141 20 -69 2 -86 9 -79 34 5
15 5 15 -6 -1 -6 -9 -8 -22 -4 -28 5 -8 1 -8 -13 0 -11 6 -23 8 -27 6 -3 -3
-3 -2 0 3 3 4 10 8 15 8 5 1 12 2 15 3 4 0 1 7 -5 15 -9 11 -6 12 16 9 16 -2
33 -5 40 -5 7 -1 10 -5 7 -10 -3 -5 -10 -5 -16 -2 -7 4 -8 2 -4 -5 4 -6 12 -8
18 -5 7 4 8 2 4 -4 -5 -8 -1 -10 9 -5 9 3 13 9 8 12 -15 11 -14 34 2 28 22 -9
18 1 -6 14 -15 8 -19 8 -15 0 4 -6 3 -11 -3 -11 -5 0 -12 4 -15 8 -3 5 -21 7
-40 6 -23 -2 -36 1 -36 9 0 7 -3 8 -8 2 -8 -11 -72 -14 -72 -4 0 10 -34 5 -42
-6 -5 -6 -8 -6 -8 1 0 6 -13 11 -30 10 -16 -1 -30 -5 -30 -9 0 -5 -5 -5 -10
-2 -8 5 -7 12 2 23 12 14 10 14 -10 3 -13 -7 -26 -10 -29 -7 -3 3 -14 1 -24
-5 -15 -7 -19 -7 -17 3 2 7 -4 12 -12 10 -12 -3 -12 -1 -3 9 6 6 9 19 6 28 -4
13 -3 14 5 1 6 -8 8 -18 5 -23 -3 -5 0 -8 8 -5 8 3 14 10 14 16 0 5 4 14 9 19
5 4 6 3 2 -4 -4 -7 2 -16 13 -22 14 -8 22 -7 32 5 10 12 10 15 -2 12 -8 -2
-13 2 -12 7 1 6 -48 11 -129 11 -98 2 -133 5 -139 15 -5 8 -9 9 -9 4 0 -16
-37 -15 -51 1 -6 8 -16 14 -21 14 -7 0 -6 -5 1 -13 9 -11 6 -14 -14 -13 -13 1
-28 6 -32 10 -5 5 -2 6 6 1 9 -5 12 -3 9 6 -3 8 -13 13 -23 12 -24 -2 -4 16
23 22 12 2 27 7 34 11 6 4 8 3 5 -2 -3 -6 -2 -16 4 -24 7 -13 9 -12 9 2 0 9 6
19 13 21 16 7 7 8 -131 10 -87 2 -111 5 -107 15 3 9 -1 9 -17 -2 -16 -11 -25
-13 -35 -4 -9 8 -13 7 -13 -1 0 -8 -6 -7 -16 3 -17 18 -39 22 -29 6 4 -6 -1
-7 -11 -3 -13 5 -15 3 -9 -7 5 -9 4 -11 -4 -6 -6 4 -8 12 -5 18 5 7 2 9 -7 6
-11 -4 -15 1 -14 17 0 13 4 27 8 31 4 5 5 1 2 -7 -7 -18 19 -44 35 -34 15 9
12 25 -4 19 -8 -3 -16 -2 -19 3 -3 4 7 8 22 8 23 1 27 -3 24 -20 -4 -15 -2
-17 5 -6 5 7 12 9 14 5 3 -5 3 -2 0 6 -2 8 -5 20 -5 25 0 6 -38 10 -91 11 -50
0 -100 4 -110 9 -12 5 -17 5 -13 -2 7 -11 -22 -11 -39 0 -6 3 -23 4 -37 2 -14
-3 -28 -1 -32 5 -4 6 1 7 11 3 15 -6 15 -4 0 19 -13 20 -14 25 -2 25 8 0 12
-7 9 -16 -4 -14 -3 -14 6 -1 5 8 13 11 18 7 4 -5 1 -12 -6 -16 -9 -6 -10 -11
-2 -15 6 -4 11 -2 11 5 0 8 9 5 23 -7 12 -10 17 -12 10 -5 -8 9 -9 20 -3 31 7
13 5 22 -7 31 -13 11 -17 11 -20 2 -3 -7 -9 -13 -14 -13 -6 0 -8 3 -6 8 3 4
-18 8 -46 9 -151 6 -151 6 -151 33 0 14 3 30 6 36 9 13 -65 13 -74 0 -5 -7 -8
-5 -8 5 0 9 -9 24 -20 34 -19 17 -19 19 -2 32 16 14 16 14 -1 9 -10 -3 -21 -6
-23 -6 -10 0 -3 -18 15 -37 19 -21 19 -21 -12 -20 -29 1 -32 4 -31 30 0 16 7
32 14 37 7 4 -6 7 -31 7 -33 -1 -43 2 -41 12 2 11 0 12 -10 3 -11 -9 -13 -1
-13 41 1 29 -3 58 -8 65 -6 8 -5 12 3 12 10 0 10 3 1 14 -8 9 -25 13 -49 10
-35 -4 -36 -3 -17 12 15 13 16 15 3 11 -16 -6 -32 15 -21 27 10 10 11 86 1 86
-5 0 -6 5 -3 11 12 18 13 63 3 83 -7 13 -7 16 1 12 6 -4 11 -3 11 3 0 5 -5 13
-10 16 -7 4 -7 11 -2 18 5 7 9 24 8 39 -2 26 -1 26 18 10 20 -17 16 -4 -7 26
-6 8 -11 22 -12 32 -1 18 0 18 29 3 42 -21 42 -21 18 -30 -19 -7 -19 -10 -5
-28 l16 -20 -7 20 -6 20 16 -20 c13 -16 15 -16 11 -3 -3 10 -2 20 3 23 13 8 4
40 -11 37 -10 -3 -9 2 3 15 10 11 15 31 13 51 -2 25 1 32 11 28 8 -3 14 -1 14
5 0 6 6 7 12 3 7 -5 20 -9 30 -9 14 -1 16 5 13 36 -3 28 0 41 12 47 20 12 55
3 47 -12 -3 -6 2 -2 10 8 9 11 16 16 16 11 0 -5 5 -4 12 3 13 13 32 16 24 4
-2 -4 4 -8 14 -8 10 0 17 3 14 7 -2 4 2 10 8 13 7 3 2 3 -12 0 -24 -6 -24 -6
-8 13 17 18 16 19 -17 19 -30 0 -32 -2 -23 -19 8 -15 7 -18 -3 -12 -8 5 -10 4
-5 -3 11 -18 0 -14 -15 5 -10 12 -11 15 -1 9 9 -6 12 -1 8 16 -4 22 -2 23 68
23 39 -1 78 2 87 7 9 4 21 2 26 -3 7 -7 16 -5 27 6 15 15 16 15 16 -1 0 -11 4
-14 13 -7 6 5 22 8 34 7 13 -1 20 3 16 9 -4 6 0 8 9 5 11 -5 15 0 14 20 -1 34
14 37 199 37 91 0 153 4 157 10 5 6 8 6 8 0 0 -6 68 -10 183 -10 142 0 181 -3
172 -12 -7 -6 -12 -22 -11 -34 1 -20 7 -23 44 -26 24 -1 42 2 42 8 0 6 6 4 14
-3 9 -9 32 -13 67 -12 49 2 52 1 35 -12 -11 -8 -15 -14 -10 -14 6 0 15 5 22
12 6 6 25 12 42 12 25 1 27 -1 15 -10 -8 -6 -14 -23 -13 -37 1 -14 4 -24 6
-22 3 2 13 0 23 -5 12 -7 22 -6 33 5 18 19 27 19 20 2 -3 -10 7 -13 41 -12 37
2 45 -1 45 -16 0 -9 3 -25 7 -35 5 -13 3 -15 -8 -9 -8 5 -11 4 -6 -1 11 -11
78 -13 70 -2 -3 5 -7 7 -10 4 -4 -3 -14 4 -25 16 -12 14 -15 25 -8 32 14 14
47 15 47 0 0 -7 -7 -10 -14 -7 -22 8 -11 -19 16 -41 13 -11 36 -20 52 -20 34
-1 48 -14 29 -26 -13 -8 -12 -10 2 -10 9 0 19 -4 22 -9 4 -5 -4 -7 -16 -4 -21
4 -22 3 -5 -10 9 -8 28 -13 42 -12 14 2 25 -2 25 -8 0 -8 3 -7 9 1 6 11 10 10
15 -3 3 -10 1 -25 -6 -34 -12 -14 -11 -14 5 -2 18 15 24 2 6 -16 -7 -7 -6 -12
5 -16 11 -4 13 -1 9 11 -6 15 -5 15 10 3 9 -7 14 -18 10 -25 -3 -6 0 -5 8 2
11 10 11 14 1 21 -10 6 -10 10 3 21 8 7 19 9 23 5 4 -4 2 -10 -4 -12 -7 -2
-10 -13 -7 -23 6 -22 23 -27 23 -7 0 9 3 8 9 -2 5 -8 16 -11 30 -6 16 5 20 3
15 -9 -3 -9 -1 -16 6 -16 6 0 8 -4 5 -10 -3 -5 0 -10 7 -10 10 0 10 -2 -1 -9
-21 -13 -5 -29 26 -25 37 4 50 -10 48 -48 -2 -28 1 -33 22 -34 21 -2 22 0 11
15 -11 14 -11 14 3 3 9 -7 23 -11 30 -10 8 2 14 -7 14 -24 1 -16 -4 -28 -9
-28 -14 0 11 -23 26 -26 7 -1 14 9 14 23 2 21 1 22 -10 7 -12 -15 -13 -15 -13
0 0 9 4 16 9 16 5 0 6 6 2 13 -5 7 0 6 11 -3 17 -14 18 -13 11 5 -5 15 -4 17
4 9 8 -8 9 -18 2 -30 -5 -11 -7 -25 -5 -31 7 -19 33 -15 33 5 0 14 -2 15 -10
2 -11 -17 -13 -10 -4 14 3 9 11 13 18 9 6 -3 6 -1 -1 8 -16 17 -17 30 -1 27 7
-2 12 2 13 9 0 6 4 15 8 20 5 4 8 4 7 -2 -1 -5 -2 -17 -1 -25 1 -13 2 -13 11
0 8 12 10 12 10 1 0 -10 3 -11 13 -2 8 6 18 7 23 3 4 -4 2 1 -5 11 -9 11 -9
17 -3 17 6 0 9 6 6 14 -3 8 -1 23 5 33 6 10 11 14 11 8 0 -5 15 -9 32 -8 45 2
45 2 28 13 -10 6 -11 10 -2 10 12 0 13 21 0 30 -3 3 0 14 8 24 8 11 14 15 14
10 0 -5 12 -9 27 -8 22 1 29 7 34 32 4 18 3 32 -2 32 -5 0 -6 7 -3 15 5 12 10
13 20 4 11 -9 14 -8 14 2 0 11 2 11 10 -1 8 -12 10 -12 10 -1 0 10 3 11 14 2
10 -8 16 -9 21 -1 3 5 0 10 -7 10 -8 0 -9 3 -3 8 13 9 16 42 3 42 -5 0 -7 4
-4 8 2 4 24 9 48 11 24 1 48 7 53 13 7 7 6 9 -2 4 -15 -8 -27 10 -13 19 6 4 8
16 4 27 -4 15 -3 18 7 13 9 -6 11 -3 6 11 -6 16 -5 17 5 4 15 -17 49 -21 60
-6 4 5 5 24 2 42 -3 29 -1 32 21 29 14 -1 25 2 25 8 0 5 6 4 14 -2 18 -15 24
-5 20 37 -1 17 2 32 7 32 19 0 24 2 38 13 12 10 13 9 7 -2 -6 -9 -4 -12 5 -9
8 2 15 21 17 41 2 19 10 41 19 49 14 11 16 11 8 -2 -7 -13 -6 -13 7 -2 13 10
17 10 21 0 4 -10 9 -9 22 3 13 13 15 21 7 36 -13 23 -4 39 23 39 59 2 66 4 63
22 -1 9 1 23 6 31 7 10 5 12 -3 6 -9 -5 -12 -1 -10 11 2 11 0 25 -5 33 -6 10
-5 12 2 7 8 -5 12 1 12 14 0 14 -4 19 -12 14 -8 -5 -7 0 2 11 14 17 13 18 -2
12 -10 -3 -20 -2 -24 4 -4 7 -10 6 -19 -1 -9 -8 -15 -8 -20 0 -3 6 -11 8 -16
5 -5 -4 -5 4 1 19 7 19 6 26 -3 26 -9 0 -8 3 1 9 19 11 -2 19 -44 15 -18 -1
-31 3 -31 9 0 7 -4 21 -9 31 -5 13 -4 17 3 13 7 -5 9 0 6 13 -3 11 -9 17 -14
14 -5 -3 -9 0 -9 6 0 7 -6 8 -19 1 -13 -8 -23 -6 -37 5 -11 9 -14 13 -9 11 11
-6 13 32 2 49 -3 6 -22 10 -42 9 -25 0 -34 3 -31 12 3 7 1 15 -4 18 -5 3 -7
18 -5 33 2 15 2 21 -1 14 -5 -10 -9 -10 -22 0 -10 7 -14 8 -10 4 4 -5 2 -16
-5 -24 -10 -13 -9 -14 2 -7 10 6 12 4 6 -5 -6 -9 -4 -11 5 -5 9 6 11 4 5 -5
-6 -9 -4 -11 5 -5 9 6 11 4 5 -5 -6 -9 -4 -11 6 -5 8 5 10 4 6 0 -11 -12 -66
-15 -72 -4 -4 5 2 6 12 2 15 -6 16 -4 6 8 -9 11 -9 19 -2 26 16 16 2 32 -22
28 -15 -3 -19 0 -15 11 3 9 2 12 -5 9 -5 -4 -18 -1 -27 7 -15 12 -16 11 -4 -4
9 -11 10 -18 2 -23 -5 -3 -13 1 -16 9 -3 9 -11 13 -18 9 -7 -4 -7 -2 1 8 9 11
9 19 2 26 -8 8 -2 10 20 8 17 -1 33 0 35 4 4 6 -18 9 -101 13 -21 1 -33 6 -33
15 0 9 -5 11 -12 7 -19 -12 -57 -14 -63 -3 -4 5 2 6 12 2 16 -6 16 -4 -2 17
l-20 24 29 -22 c16 -12 31 -21 33 -19 7 8 -9 37 -18 32 -4 -3 -14 3 -21 15 -7
11 -23 20 -36 20 -16 0 -21 4 -16 13 6 9 4 9 -7 1 -19 -15 -52 -14 -39 1 14
17 0 27 -19 12 -14 -11 -14 -10 -2 5 7 10 17 16 20 13 4 -2 8 2 8 10 0 8 -3
15 -6 16 -41 6 -57 4 -63 -5 -5 -7 -8 -5 -8 5 0 9 -8 23 -17 30 -16 12 -17 12
-5 -2 11 -15 7 -16 -32 -15 -27 0 -42 5 -38 11 10 16 11 35 1 35 -5 0 -8 5 -7
11 2 7 -11 12 -28 14 -25 1 -31 -2 -27 -14 3 -12 1 -11 -7 2 -8 12 -22 17 -45
15 -22 -1 -42 5 -56 17 -17 15 -21 16 -17 5 4 -12 -1 -16 -22 -15 -16 0 -25 4
-22 10 4 5 7 17 7 25 0 9 11 14 32 15 18 0 36 4 40 9 4 4 -5 7 -22 6 -16 -1
-34 -1 -40 0 -26 6 -41 4 -47 -5 -4 -6 -8 -2 -8 8 0 12 -4 16 -12 10 -18 -11
-38 -13 -38 -3 0 4 -16 4 -35 0 -19 -4 -36 -6 -36 -4 -1 2 -2 19 -3 37 -1 25
-5 31 -20 29 -12 -2 -16 1 -11 10 6 10 5 11 -6 1 -14 -14 -33 -18 -26 -5 3 4
-43 7 -101 7 -59 -1 -115 3 -124 7 -12 6 -18 5 -18 -4 0 -6 -7 -3 -16 8 -8 10
-12 13 -8 5 5 -10 3 -12 -6 -6 -7 4 -16 2 -21 -6 -4 -7 -11 -10 -15 -6 -4 4 2
14 14 23 12 8 22 22 22 30 0 8 4 13 8 10 5 -3 9 2 9 10 0 10 -4 11 -11 4 -12
-12 -29 -14 -22 -2 3 5 -1 9 -9 9 -8 0 -14 -3 -13 -6 0 -3 -1 -10 -2 -16 -2
-5 -3 -19 -4 -30 -1 -14 -8 -20 -26 -20 -14 0 -30 -3 -35 -7 -6 -4 -17 -2 -25
4 -12 8 -12 9 2 4 10 -3 20 -1 23 4 6 10 -4 13 -40 11 -18 -1 -19 0 -2 7 10 4
18 11 18 15 -3 25 0 27 18 17 26 -13 34 -13 25 2 -5 7 -3 8 5 4 9 -6 8 -13 -5
-27 -9 -10 -13 -19 -8 -19 17 0 32 15 36 34 3 18 -4 20 -69 21 -47 1 -73 -2
-73 -9 0 -8 -3 -8 -8 0 -9 14 -752 16 -752 2 0 -4 5 -8 12 -8 6 0 8 -3 4 -7
-4 -5 -13 -1 -19 8 -9 11 -29 15 -79 15 -36 -1 -64 -4 -62 -8z m120 -7 c-3 -5
1 -12 10 -15 9 -4 14 -9 11 -13 -4 -3 1 -12 11 -20 15 -13 15 -13 -6 -3 -12 6
-20 15 -17 19 3 5 -2 11 -10 15 -8 3 -19 -3 -24 -12 -7 -12 -10 -13 -11 -3 0
8 8 20 18 27 20 16 25 17 18 5z m969 -31 c-5 -8 -11 -8 -17 -2 -6 6 -7 16 -3
22 5 8 11 8 17 2 6 -6 7 -16 3 -22z m-968 -26 c-3 -3 -12 -4 -19 -1 -8 3 -5 6
6 6 11 1 17 -2 13 -5z m-369 -37 c8 -10 6 -16 -9 -25 -10 -7 -19 -8 -19 -3 0
5 6 11 13 14 6 2 9 8 5 12 -4 4 -15 2 -23 -5 -13 -11 -18 -11 -28 0 -10 10 -9
12 5 7 10 -3 20 -2 23 3 8 14 21 12 33 -3z m1645 -7 c4 0 5 5 1 12 -4 7 -3 8
5 4 6 -4 8 -12 5 -18 -5 -7 -2 -9 8 -5 11 4 15 0 14 -10 -3 -17 -46 -27 -46
-11 0 4 5 8 12 8 6 0 9 2 6 5 -8 8 -39 -6 -33 -14 2 -4 -3 -8 -11 -8 -10 0
-11 4 -4 11 14 14 13 29 -2 20 -9 -5 -8 -2 1 10 10 12 17 14 25 6 5 -5 14 -10
19 -10z m-1883 -104 c0 -2 -7 -7 -16 -10 -8 -3 -12 -2 -9 4 6 10 25 14 25 6z
m-167 -61 c-3 -9 -8 -14 -10 -11 -3 3 -2 9 2 15 9 16 15 13 8 -4z m2470 8 c3
-5 -8 -8 -25 -9 -20 -1 -25 2 -16 7 16 11 35 11 41 2z m-2493 -7 c0 -2 -6 -9
-14 -15 -11 -9 -16 -9 -22 0 -4 7 -3 9 4 5 6 -3 13 -2 17 4 6 10 15 14 15 6z
m-156 -68 c-3 -4 -11 -5 -19 -1 -21 7 -19 12 4 10 11 0 18 -5 15 -9z m2780 -6
c3 -5 -1 -9 -9 -9 -8 0 -12 4 -9 9 3 4 7 8 9 8 2 0 6 -4 9 -8z m-2763 -29 c13
-15 12 -15 -8 -4 -18 9 -23 9 -23 0 0 -7 -3 -10 -6 -6 -7 7 4 27 15 27 5 0 15
-7 22 -17z m-346 -203 c-15 -17 -16 -22 -4 -37 13 -16 12 -17 -4 -4 -10 8 -16
20 -13 27 3 7 2 15 -2 17 -4 2 -2 2 5 1 7 -2 15 1 18 6 4 6 9 10 12 10 3 0 -2
-9 -12 -20z m33 -3 c-12 -10 -14 -17 -6 -32 10 -19 10 -19 -8 -2 -19 18 -19
19 0 33 11 8 22 14 25 14 3 0 -1 -6 -11 -13z m-91 -92 c-3 -7 0 -18 6 -25 10
-10 8 -10 -9 -2 -15 8 -24 8 -34 -1 -10 -9 -11 -9 -6 1 4 7 2 12 -6 12 -10 0
-10 2 1 9 8 5 20 7 28 4 7 -3 13 0 13 6 0 11 -12 15 -40 12 -13 -2 -13 0 -1 8
19 12 55 -5 48 -24z m3641 23 c-2 -7 5 -13 14 -13 9 0 20 -4 25 -9 5 -5 2 -6
-6 -1 -10 6 -13 4 -9 -7 4 -8 0 -15 -8 -15 -7 0 -11 4 -9 8 3 3 -2 12 -10 19
-8 7 -12 16 -9 21 8 13 14 11 12 -3z m-3973 -498 c-3 -5 -14 -8 -24 -7 -15 1
-17 4 -8 19 8 12 15 14 24 6 7 -5 10 -14 8 -18z m1686 -54 c-9 -11 -9 -15 1
-19 15 -7 -17 -31 -44 -33 -13 -1 -14 2 -5 17 6 10 15 15 19 13 5 -3 5 -10 2
-16 -4 -7 -2 -8 5 -4 9 6 9 11 1 21 -12 15 -44 9 -34 -6 3 -5 0 -9 -5 -9 -6 0
-11 7 -11 16 0 8 -4 13 -8 10 -4 -2 -14 0 -22 5 -11 7 -6 8 15 4 17 -2 44 0
60 4 17 5 32 10 34 10 2 1 -2 -5 -8 -13z m-118 -9 c3 -8 2 -20 -3 -26 -5 -9
-7 -4 -7 13 0 29 2 32 10 13z m917 1 c0 -8 -15 -12 -37 -9 -7 1 -13 -5 -13
-13 0 -8 -5 -18 -11 -21 -6 -4 -9 0 -7 11 5 28 68 58 68 32z m30 -12 c0 -3 -4
-8 -10 -11 -5 -3 -10 -1 -10 4 0 6 5 11 10 11 6 0 10 -2 10 -4z m-918 -13 c-6
-2 -10 -9 -6 -14 3 -5 0 -9 -5 -9 -12 0 -14 13 -4 23 3 4 11 7 17 6 6 0 5 -3
-2 -6z m888 -13 c0 -5 -2 -10 -4 -10 -3 0 -8 5 -11 10 -3 6 -1 10 4 10 6 0 11
-4 11 -10z m263 -69 c-2 -3 -9 1 -15 7 -17 17 -33 15 -18 -3 6 -8 9 -19 5 -24
-8 -14 -45 9 -45 28 0 8 8 4 20 -10 10 -13 19 -19 20 -13 0 5 -6 16 -12 22
-21 21 10 33 32 13 9 -9 15 -18 13 -20z m-1309 7 c-3 -4 -9 -8 -15 -8 -5 0 -9
4 -9 8 0 5 7 9 15 9 8 0 12 -4 9 -9z m1636 -153 c0 -7 -30 -13 -34 -7 -3 4 4
9 15 9 10 1 19 0 19 -2z m65 -57 c0 -2 -7 -12 -17 -21 -14 -15 -17 -15 -22 -1
-10 27 -7 34 17 30 12 -1 22 -5 22 -8z m-1925 -410 c0 -4 -4 -8 -8 -8 -5 0 -9
-7 -9 -15 0 -10 6 -14 15 -10 12 5 13 3 2 -10 -11 -13 -15 -13 -22 -3 -8 11
-10 11 -15 0 -4 -10 -8 -10 -19 -1 -11 9 -11 15 4 34 16 22 52 30 52 13z
m-1297 -151 c3 -8 -3 -13 -18 -13 -13 0 -21 4 -19 8 3 5 10 6 15 3 5 -4 9 -1
9 4 0 15 7 14 13 -2z m-3 -57 c0 -5 -5 -10 -11 -10 -5 0 -7 5 -4 10 3 6 8 10
11 10 2 0 4 -4 4 -10z m1783 -126 c-4 -12 -8 -13 -14 -3 -9 15 -2 32 11 24 5
-3 6 -13 3 -21z m-1703 -168 c-7 -7 -13 -7 -20 0 -6 6 -3 10 10 10 13 0 16 -4
10 -10z m177 -301 c0 -8 -4 -12 -9 -9 -5 3 -6 10 -3 15 9 13 12 11 12 -6z
m3149 -13 c-2 -4 -1 -13 3 -20 5 -9 13 -7 29 8 12 12 23 16 27 10 3 -6 -1 -13
-9 -16 -9 -3 -13 -11 -9 -17 3 -6 1 -7 -5 -3 -7 4 -12 2 -12 -5 0 -8 -3 -9
-13 0 -8 6 -16 8 -19 5 -3 -2 -5 7 -5 21 0 14 4 25 9 25 5 0 7 -4 4 -8z m392
-217 c-3 -3 -9 2 -12 12 -6 14 -5 15 5 6 7 -7 10 -15 7 -18z m62 -27 c0 -6 -3
-8 -7 -5 -3 4 -11 2 -18 -3 -8 -7 -12 -6 -12 3 0 7 9 14 19 14 10 1 18 -3 18
-9z m100 -72 c0 -3 -4 -8 -10 -11 -5 -3 -10 -1 -10 4 0 6 5 11 10 11 6 0 10
-2 10 -4z m-3156 -144 c3 -5 -1 -9 -9 -9 -8 0 -12 4 -9 9 3 4 7 8 9 8 2 0 6
-4 9 -8z m171 -112 c3 -5 -4 -6 -15 -3 -11 3 -22 9 -25 13 -3 5 4 6 15 3 11
-3 22 -9 25 -13z m388 -123 c4 3 7 1 7 -6 0 -7 4 -10 9 -6 5 3 13 0 17 -6 4
-7 3 -9 -4 -5 -6 3 -14 -3 -17 -15 -7 -20 -8 -20 -17 -5 -5 9 -13 14 -17 12
-4 -3 -7 6 -7 19 0 17 3 21 11 15 7 -6 15 -7 18 -3z m2980 -33 c-5 -13 -8 -13
-24 2 -23 21 -15 38 11 24 12 -6 17 -16 13 -26z m-2706 -48 c4 -4 1 -11 -7
-16 -13 -8 -13 -10 1 -10 9 0 19 7 23 15 6 17 26 20 26 4 0 -5 -4 -8 -9 -5 -5
3 -11 -1 -15 -9 -3 -8 -15 -15 -26 -15 -11 0 -20 -4 -20 -8 0 -5 -7 -9 -15 -9
-19 0 -19 11 -1 27 8 6 12 18 10 25 -6 14 19 15 33 1z m80 -20 c0 -8 -6 -12
-15 -9 -11 5 -11 7 0 14 7 5 13 9 14 9 0 0 1 -6 1 -14z m-44 -21 c-3 -9 -8
-14 -10 -11 -3 3 -2 9 2 15 9 16 15 13 8 -4z m344 -50 c5 -4 3 -5 -4 -2 -6 4
-14 1 -17 -5 -5 -11 -7 -11 -12 0 -3 6 -11 9 -16 6 -6 -4 -8 -3 -5 3 7 11 43
10 54 -2z m20 -20 c0 -8 -4 -12 -9 -9 -5 3 -6 10 -3 15 9 13 12 11 12 -6z
m283 -51 c0 12 30 -14 30 -27 0 -6 -7 -2 -15 9 -11 14 -14 15 -15 4 0 -13 -1
-13 -10 0 -5 8 -10 20 -10 25 0 6 5 3 10 -5 5 -8 10 -11 10 -6z m215 -103 c-3
-5 -1 -12 5 -16 6 -4 8 -11 4 -16 -9 -14 -23 -1 -19 19 5 23 4 22 11 22 3 0 3
-4 -1 -9z m265 -72 c0 -5 -4 -7 -10 -4 -5 3 -10 2 -10 -4 0 -5 6 -11 13 -14 6
-2 10 -7 7 -10 -3 -3 -14 1 -25 9 -17 13 -18 16 -5 24 20 13 30 12 30 -1z m28
-15 c0 -17 -3 -22 -8 -13 -5 6 -6 18 -3 26 8 19 11 16 11 -13z m1648 -100 c1
-9 0 -13 -4 -10 -3 4 -7 14 -8 22 -1 9 0 13 4 10 3 -4 7 -14 8 -22z m-1250
-196 c0 -10 -4 -19 -8 -19 -20 -3 -24 -5 -38 -14 -13 -7 -13 -6 -2 7 10 13 10
18 1 24 -9 5 -7 9 6 14 31 11 41 8 41 -12z m-2563 -261 c-5 -8 -8 -7 -11 2 -3
10 -6 11 -12 1 -6 -10 -12 -10 -26 0 -16 9 -16 11 -2 6 10 -3 20 -1 23 4 3 5
12 7 20 4 8 -4 12 -11 8 -17z m2608 -70 c-10 -9 -11 -8 -5 6 3 10 9 15 12 12
3 -3 0 -11 -7 -18z m-2456 -128 c-3 -4 -19 -3 -36 3 -27 9 -28 11 -12 23 15
11 21 11 35 -2 10 -9 15 -19 13 -24z m92 -36 c0 -8 -6 -9 -17 -3 -10 5 -20 6
-24 3 -3 -3 -6 -2 -6 4 0 6 10 10 23 9 13 0 24 -6 24 -13z m-47 -23 c12 -23
12 -24 -3 -11 -10 7 -17 20 -17 29 0 18 3 16 20 -18z m-610 -54 c-4 -4 -16 -4
-26 2 -16 9 -14 10 8 9 15 -1 23 -6 18 -11z m2989 -19 c-2 -1 -12 -9 -22 -16
-15 -12 -17 -12 -11 3 3 9 13 16 22 16 8 0 13 -1 11 -3z m1256 -27 c3 -5 1
-10 -4 -10 -6 0 -11 5 -11 10 0 6 2 10 4 10 3 0 8 -4 11 -10z m-3359 -35 c0
-14 -6 -21 -20 -22 -12 0 -30 -4 -41 -9 -19 -8 -19 -7 -2 10 9 10 14 22 11 28
-4 6 -2 8 4 4 6 -3 13 -3 16 2 10 17 32 8 32 -13z m3339 14 c11 -16 1 -19 -13
-3 -7 8 -8 14 -3 14 5 0 13 -5 16 -11z m-15 -13 c0 -3 -4 -8 -10 -11 -5 -3
-10 -1 -10 4 0 6 5 11 10 11 6 0 10 -2 10 -4z m35 -26 c3 -5 1 -10 -4 -10 -6
0 -11 5 -11 10 0 6 2 10 4 10 3 0 8 -4 11 -10z m-1455 -48 c0 -13 -12 -22 -22
-16 -10 6 -1 24 13 24 5 0 9 -4 9 -8z m-1600 -116 c0 -6 -7 -1 -15 10 -8 10
-15 23 -15 28 0 6 7 1 15 -10 8 -10 15 -23 15 -28z m-22 -11 c-3 -3 -9 2 -12
12 -6 14 -5 15 5 6 7 -7 10 -15 7 -18z m1542 19 c0 -8 -19 -13 -24 -6 -3 5 1
9 9 9 8 0 15 -2 15 -3z m-223 -68 c0 -8 -8 -11 -21 -8 -19 5 -19 6 0 13 10 4
19 8 20 8 0 1 1 -5 1 -13z m-1060 -11 c0 -8 -4 -12 -9 -9 -5 3 -6 10 -3 15 9
13 12 11 12 -6z m1017 -1 c3 -8 2 -12 -4 -9 -6 3 -10 10 -10 16 0 14 7 11 14
-7z m1718 -29 c3 3 4 -7 3 -22 -1 -17 -7 -27 -15 -25 -7 2 -17 -3 -21 -10 -7
-11 -9 -11 -9 0 0 7 -5 10 -12 6 -7 -5 -8 -3 -2 7 5 8 7 22 6 31 -2 13 1 16
14 11 13 -5 15 -3 9 8 -7 11 -6 12 7 2 8 -7 17 -11 20 -8z m-4616 -57 c5 4 3
-1 -4 -10 -14 -17 -52 -20 -63 -5 -4 5 1 18 10 29 16 19 16 19 32 -1 9 -11 20
-17 25 -13z m-36 -58 c0 -5 -7 -6 -17 -3 -10 4 -14 2 -9 -5 3 -6 2 -13 -3 -16
-7 -5 -8 11 -2 32 3 7 31 0 31 -8z m504 -482 c-3 -4 -9 -8 -15 -8 -5 0 -9 4
-9 8 0 5 7 9 15 9 8 0 12 -4 9 -9z m80 -67 c-1 -14 -2 -30 -3 -35 -1 -5 -8 -3
-16 4 -8 6 -18 9 -23 6 -5 -3 -9 1 -9 9 0 8 4 12 9 9 5 -4 12 3 14 13 8 30 31
24 28 -6z m3590 -20 c-4 -3 -9 0 -11 7 -4 10 -8 10 -19 1 -9 -7 -14 -8 -14 -1
0 6 6 12 13 15 14 5 40 -13 31 -22z m-3439 -81 c3 -5 -4 -6 -15 -3 -11 3 -22
9 -25 13 -3 5 4 6 15 3 11 -3 22 -9 25 -13z m3192 -36 c-3 -3 -12 -4 -19 -1
-8 3 -5 6 6 6 11 1 17 -2 13 -5z m-3 -26 c4 3 4 -1 1 -10 -6 -15 -8 -15 -26 0
-24 21 -24 26 0 13 10 -6 21 -7 25 -3z m-164 -64 c0 -8 -19 -13 -24 -6 -3 5 1
9 9 9 8 0 15 -2 15 -3z m11 -17 c-10 -9 -11 -8 -5 6 3 10 9 15 12 12 3 -3 0
-11 -7 -18z m-2714 -14 c0 -9 -4 -10 -14 -2 -7 6 -13 12 -13 14 0 1 6 2 13 2
8 0 14 -6 14 -14z m2693 3 c0 -2 -7 -7 -16 -10 -8 -3 -12 -2 -9 4 6 10 25 14
25 6z m-152 -54 c7 7 12 10 13 8 0 -3 2 -13 4 -22 2 -10 -2 -18 -8 -18 -8 0
-7 -4 2 -9 9 -6 4 -8 -17 -7 -17 1 -37 7 -44 14 -11 11 -10 12 2 7 11 -4 16 1
17 15 1 12 -2 18 -9 14 -7 -5 -8 -2 -3 6 6 10 10 10 20 -3 9 -12 14 -14 23 -5z
m-2130 -71 c6 -1 12 -5 12 -10 0 -6 -9 -9 -19 -8 -11 0 -17 5 -15 9 3 4 -2 5
-10 2 -9 -3 -16 -2 -16 4 0 6 8 9 18 7 9 -2 23 -4 30 -4z m1804 -8 c-1 -4 7
-17 16 -28 17 -20 17 -20 -4 -2 -11 9 -21 24 -21 32 0 8 2 13 5 11 2 -2 4 -8
4 -13z m57 0 c-13 -14 -9 -16 15 -7 9 3 14 9 11 13 -2 4 2 8 10 8 11 0 12 -4
4 -14 -8 -9 -8 -13 0 -13 6 0 11 -4 11 -10 0 -5 -3 -9 -7 -9 -20 3 -34 -2 -28
-10 3 -5 1 -12 -4 -15 -13 -8 -25 12 -26 45 -1 15 4 26 12 26 9 0 10 -4 2 -14z
m-1809 3 c0 -2 -7 -7 -16 -10 -8 -3 -12 -2 -9 4 6 10 25 14 25 6z m31 -38
c-11 -11 -13 -10 -7 0 4 7 2 21 -5 30 -12 15 -11 15 6 0 16 -15 17 -20 6 -30z
m-93 2 c-4 -17 -27 -21 -45 -7 -19 14 -6 27 23 25 16 -2 24 -8 22 -18z m66 12
c3 -5 -1 -9 -9 -9 -8 0 -12 4 -9 9 3 4 7 8 9 8 2 0 6 -4 9 -8z m-19 -30 c-3
-3 -11 0 -18 7 -9 10 -8 11 6 5 10 -3 15 -9 12 -12z m531 -37 c-1 -8 -5 -17
-8 -21 -5 -4 -4 16 1 34 3 9 9 -1 7 -13z m679 -23 c-3 -3 -11 0 -18 7 -9 10
-8 11 6 5 10 -3 15 -9 12 -12z m54 -5 c0 -9 -2 -8 -6 1 -2 6 -10 9 -15 6 -7
-4 -8 -2 -4 5 9 13 26 5 25 -12z m-769 9 c0 -2 -8 -10 -17 -17 -16 -13 -17
-12 -4 4 13 16 21 21 21 13z"/>
<path d="M1585 4360 c-17 -19 -11 -28 10 -12 10 7 19 32 12 32 -2 0 -12 -9
-22 -20z"/>
<path d="M1670 2856 c0 -2 7 -9 15 -16 9 -7 15 -8 15 -2 0 5 -7 12 -15 16 -8
3 -15 4 -15 2z"/>
<path d="M3525 2141 c-3 -5 -2 -12 3 -15 5 -3 9 1 9 9 0 17 -3 19 -12 6z"/>
<path d="M1104 1698 c-4 -7 -4 -10 1 -6 4 4 15 2 24 -5 14 -11 14 -10 2 6 -16
20 -18 21 -27 5z"/>
<path d="M1431 1486 c-10 -11 -9 -14 1 -12 14 2 23 15 15 22 -2 2 -10 -2 -16
-10z"/>
<path d="M4725 1181 c6 -10 4 -13 -7 -9 -8 4 -15 1 -15 -6 0 -6 8 -12 17 -12
18 0 21 19 5 33 -4 5 -5 2 0 -6z"/>
<path d="M77 1137 c-3 -8 1 -14 8 -14 7 0 11 6 8 14 -3 7 -6 13 -8 13 -2 0 -5
-6 -8 -13z"/>
<path d="M655 531 c-3 -5 -2 -12 3 -15 5 -3 9 1 9 9 0 17 -3 19 -12 6z"/>
<path d="M3685 210 c-4 -6 -10 -8 -14 -6 -4 3 -8 -1 -8 -8 0 -17 23 -10 31 10
6 16 0 19 -9 4z"/>
<path d="M3421 116 c-9 -11 -9 -16 0 -22 7 -4 9 -3 5 4 -3 6 2 15 11 21 10 6
13 11 7 11 -6 0 -17 -6 -23 -14z"/>
<path d="M1504 112 c4 -3 14 -7 22 -8 9 -1 13 0 10 4 -4 3 -14 7 -22 8 -9 1
-13 0 -10 -4z"/>
<path d="M1910 6300 c0 -5 5 -10 10 -10 6 0 10 5 10 10 0 6 -4 10 -10 10 -5 0
-10 -4 -10 -10z"/>
<path d="M1993 6271 c0 -10 8 -18 16 -16 21 3 22 31 0 32 -11 1 -17 -5 -16
-16z"/>
<path d="M2945 6280 c3 -5 10 -10 16 -10 5 0 9 5 9 10 0 6 -7 10 -16 10 -8 0
-12 -4 -9 -10z"/>
<path d="M3146 6278 c3 -5 10 -6 15 -3 13 9 11 12 -6 12 -8 0 -12 -4 -9 -9z"/>
<path d="M1917 6273 c-10 -9 -9 -23 1 -23 5 0 9 7 9 15 0 17 -1 18 -10 8z"/>
<path d="M3426 6198 c3 -5 10 -6 15 -3 13 9 11 12 -6 12 -8 0 -12 -4 -9 -9z"/>
<path d="M3435 6180 c-16 -7 -17 -9 -3 -9 9 -1 20 4 23 9 7 11 7 11 -20 0z"/>
<path d="M6493 6144 c-12 -13 -19 -24 -16 -24 4 0 2 -5 -5 -12 -18 -18 -14
-37 7 -35 11 0 17 5 15 9 -3 4 -1 8 5 8 5 0 12 -8 14 -17 2 -10 4 -4 3 14 l-1
32 -22 -21 c-31 -29 -29 -10 2 26 14 16 25 33 25 38 0 11 -1 10 -27 -18z"/>
<path d="M3580 6125 c0 -5 4 -16 9 -23 6 -11 10 -10 15 4 3 9 4 19 1 22 -3 3
-5 -1 -5 -9 0 -11 -2 -11 -10 1 -5 8 -10 11 -10 5z"/>
<path d="M3626 6121 c-3 -5 2 -15 12 -22 15 -13 16 -12 4 3 -10 13 -10 17 0
21 9 4 9 6 1 6 -6 1 -14 -3 -17 -8z"/>
<path d="M1175 6060 c-3 -5 -1 -10 4 -10 6 0 11 5 11 10 0 6 -2 10 -4 10 -3 0
-8 -4 -11 -10z"/>
<path d="M3836 6062 c-3 -5 1 -9 9 -9 8 0 12 4 9 9 -3 4 -7 8 -9 8 -2 0 -6 -4
-9 -8z"/>
<path d="M6514 6015 c-4 -8 -9 -13 -13 -10 -5 2 -18 -10 -30 -28 l-22 -32 24
27 c14 15 27 24 30 22 3 -3 10 4 17 15 6 12 8 21 5 21 -3 0 -8 -7 -11 -15z"/>
<path d="M4013 5969 c-2 -23 3 -25 10 -4 4 8 3 16 -1 19 -4 3 -9 -4 -9 -15z"/>
<path d="M6482 5957 l-21 -22 20 -33 c12 -17 25 -32 31 -32 5 0 2 7 -6 16 -22
21 -37 50 -30 57 8 8 33 -16 27 -25 -2 -5 1 -8 6 -8 16 0 13 16 -4 30 -15 13
-12 30 6 30 6 0 7 -5 3 -12 -4 -7 -3 -8 5 -4 12 7 6 26 -8 26 -4 0 -17 -10
-29 -23z"/>
<path d="M4067 5904 c3 -7 8 -13 11 -12 20 2 32 -3 27 -12 -3 -5 -1 -10 4 -10
6 0 9 10 8 22 -3 16 -11 22 -30 23 -17 1 -24 -2 -20 -11z"/>
<path d="M946 5898 c3 -5 0 -17 -7 -26 -11 -13 -8 -12 9 2 26 22 28 33 7 33
-8 0 -12 -4 -9 -9z"/>
<path d="M6450 5901 c0 -5 7 -12 16 -15 14 -5 15 -4 4 9 -14 17 -20 19 -20 6z"/>
<path d="M6466 5854 c-8 -21 -8 -21 10 -28 14 -5 15 -4 5 8 -7 8 -8 17 -3 20
5 3 14 -6 20 -19 7 -14 17 -25 24 -25 9 0 10 3 2 8 -6 4 -16 17 -23 30 -14 26
-26 28 -35 6z"/>
<path d="M899 5808 c-6 -21 -5 -39 2 -44 5 -3 8 6 7 20 -2 22 -6 33 -9 24z"/>
<path d="M4300 5716 c0 -2 8 -10 18 -17 15 -13 16 -12 3 4 -13 16 -21 21 -21
13z"/>
<path d="M6493 5664 c-12 -13 -19 -24 -16 -24 4 0 2 -5 -5 -12 -18 -18 -14
-37 7 -35 11 0 17 5 15 9 -3 4 -1 8 5 8 5 0 12 -8 14 -17 2 -10 4 -4 3 14 l-1
32 -22 -21 c-31 -29 -29 -10 2 26 14 16 25 33 25 38 0 11 -1 10 -27 -18z"/>
<path d="M614 5592 c2 -2 0 -17 -4 -33 -8 -27 -7 -28 11 -18 14 7 24 7 32 0
10 -7 13 -2 13 23 0 29 -3 32 -28 32 -15 0 -26 -1 -24 -4z m41 -23 c2 -8 -5
-15 -15 -15 -15 0 -17 6 -11 34 2 10 25 -6 26 -19z"/>
<path d="M6514 5535 c-4 -8 -9 -13 -13 -10 -5 2 -18 -10 -30 -28 l-22 -32 24
27 c14 15 27 24 30 22 3 -3 10 4 17 15 6 12 8 21 5 21 -3 0 -8 -7 -11 -15z"/>
<path d="M6482 5477 l-21 -22 20 -33 c12 -17 25 -32 31 -32 5 0 2 7 -6 16 -22
21 -37 50 -30 57 8 8 33 -16 27 -25 -2 -5 1 -8 6 -8 16 0 13 16 -4 30 -15 13
-12 30 6 30 6 0 7 -5 3 -12 -4 -7 -3 -8 5 -4 12 7 6 26 -8 26 -4 0 -17 -10
-29 -23z"/>
<path d="M6450 5421 c0 -5 7 -12 16 -15 14 -5 15 -4 4 9 -14 17 -20 19 -20 6z"/>
<path d="M6466 5374 c-8 -21 -8 -21 10 -28 14 -5 15 -4 5 8 -7 8 -8 17 -3 20
5 3 14 -6 20 -19 7 -14 17 -25 24 -25 9 0 10 3 2 8 -6 4 -16 17 -23 30 -14 26
-26 28 -35 6z"/>
<path d="M496 5318 c3 -5 10 -6 15 -3 13 9 11 12 -6 12 -8 0 -12 -4 -9 -9z"/>
<path d="M6493 5184 c-12 -13 -19 -24 -16 -24 4 0 2 -5 -5 -12 -18 -18 -14
-37 7 -35 11 0 17 5 15 9 -3 4 -1 8 5 8 5 0 12 -8 14 -17 2 -10 4 -4 3 14 l-1
32 -22 -21 c-31 -29 -29 -10 2 26 14 16 25 33 25 38 0 11 -1 10 -27 -18z"/>
<path d="M4575 5141 c-3 -5 -2 -12 3 -15 5 -3 9 1 9 9 0 17 -3 19 -12 6z"/>
<path d="M2689 5083 c-13 -16 -12 -17 4 -4 9 7 17 15 17 17 0 8 -8 3 -21 -13z"/>
<path d="M2758 5092 c6 -2 10 -8 7 -13 -4 -5 2 -6 12 -2 16 6 16 4 -2 -17 -11
-13 -14 -20 -8 -16 7 4 23 2 35 -4 21 -10 21 -10 6 3 -19 15 -25 32 -8 22 6
-3 10 -1 10 4 0 6 -6 11 -12 11 -10 0 -10 2 0 8 8 6 1 9 -20 9 -18 0 -27 -2
-20 -5z"/>
<path d="M2139 5073 c-13 -16 -12 -17 4 -4 9 7 17 15 17 17 0 8 -8 3 -21 -13z"/>
<path d="M6514 5055 c-4 -8 -9 -13 -13 -10 -5 2 -18 -10 -30 -28 l-22 -32 24
27 c14 15 27 24 30 22 3 -3 10 4 17 15 6 12 8 21 5 21 -3 0 -8 -7 -11 -15z"/>
<path d="M6482 4997 l-21 -22 20 -33 c12 -17 25 -32 31 -32 5 0 2 7 -6 16 -22
21 -37 50 -30 57 8 8 33 -16 27 -25 -2 -5 1 -8 6 -8 16 0 13 16 -4 30 -15 13
-12 30 6 30 6 0 7 -5 3 -12 -4 -7 -3 -8 5 -4 12 7 6 26 -8 26 -4 0 -17 -10
-29 -23z"/>
<path d="M3015 4980 c3 -5 8 -10 11 -10 2 0 4 5 4 10 0 6 -5 10 -11 10 -5 0
-7 -4 -4 -10z"/>
<path d="M322 4943 c-5 -10 -7 -24 -4 -32 3 -9 0 -11 -7 -7 -7 5 -9 17 -5 28
4 14 2 18 -5 14 -16 -10 -14 -25 9 -53 19 -24 25 -20 21 16 -2 8 3 10 11 6 10
-6 11 -5 1 6 -16 16 -17 33 -1 23 7 -4 8 -3 4 4 -10 16 -14 15 -24 -5z"/>
<path d="M3275 4941 c-3 -5 -2 -12 3 -15 5 -3 9 1 9 9 0 17 -3 19 -12 6z"/>
<path d="M6450 4941 c0 -5 7 -12 16 -15 14 -5 15 -4 4 9 -14 17 -20 19 -20 6z"/>
<path d="M6466 4894 c-8 -21 -8 -21 10 -28 14 -5 15 -4 5 8 -7 8 -8 17 -3 20
5 3 14 -6 20 -19 7 -14 17 -25 24 -25 9 0 10 3 2 8 -6 4 -16 17 -23 30 -14 26
-26 28 -35 6z"/>
<path d="M1575 4770 c-8 -13 9 -20 24 -11 10 6 9 10 -3 14 -8 3 -18 2 -21 -3z"/>
<path d="M6486 4694 c-11 -8 -16 -14 -12 -14 5 0 4 -6 -1 -12 -15 -20 -24 -50
-13 -43 6 3 10 12 10 19 0 7 9 22 21 35 25 27 22 35 -5 15z"/>
<path d="M3593 4670 c1 -21 10 -18 13 5 1 8 -2 15 -6 15 -5 0 -8 -9 -7 -20z"/>
<path d="M6815 4621 c-3 -5 -2 -12 3 -15 5 -3 9 1 9 9 0 17 -3 19 -12 6z"/>
<path d="M6935 4619 c-3 -4 2 -6 10 -5 21 3 28 13 10 13 -9 0 -18 -4 -20 -8z"/>
<path d="M7295 4621 c-3 -5 -2 -12 3 -15 5 -3 9 1 9 9 0 17 -3 19 -12 6z"/>
<path d="M7415 4619 c-3 -4 2 -6 10 -5 21 3 28 13 10 13 -9 0 -18 -4 -20 -8z"/>
<path d="M7775 4621 c-3 -5 -2 -12 3 -15 5 -3 9 1 9 9 0 17 -3 19 -12 6z"/>
<path d="M7895 4619 c-3 -4 2 -6 10 -5 21 3 28 13 10 13 -9 0 -18 -4 -20 -8z"/>
<path d="M8255 4621 c-3 -5 -2 -12 3 -15 5 -3 9 1 9 9 0 17 -3 19 -12 6z"/>
<path d="M8375 4619 c-3 -4 2 -6 10 -5 21 3 28 13 10 13 -9 0 -18 -4 -20 -8z"/>
<path d="M8735 4621 c-3 -5 -2 -12 3 -15 5 -3 9 1 9 9 0 17 -3 19 -12 6z"/>
<path d="M8855 4619 c-3 -4 2 -6 10 -5 21 3 28 13 10 13 -9 0 -18 -4 -20 -8z"/>
<path d="M9215 4621 c-3 -5 -2 -12 3 -15 5 -3 9 1 9 9 0 17 -3 19 -12 6z"/>
<path d="M9335 4619 c-3 -4 2 -6 10 -5 21 3 28 13 10 13 -9 0 -18 -4 -20 -8z"/>
<path d="M1689 4283 c-13 -16 -12 -17 4 -4 9 7 17 15 17 17 0 8 -8 3 -21 -13z"/>
<path d="M1790 4201 c0 -6 4 -13 10 -16 6 -3 7 1 4 9 -7 18 -14 21 -14 7z"/>
<path d="M1915 4131 c1 -8 7 -17 13 -19 7 -2 9 -9 5 -15 -3 -7 -2 -8 2 -4 17
15 14 36 -3 29 -14 -5 -15 -3 -5 9 10 13 10 16 -1 16 -8 0 -13 -7 -11 -16z"/>
<path d="M285 4020 c-4 -6 -4 -14 -1 -17 3 -4 6 -1 6 7 0 9 4 10 13 2 9 -8 17
-8 27 0 13 8 12 9 -1 5 -9 -3 -21 -1 -27 5 -6 6 -12 6 -17 -2z"/>
<path d="M2410 3979 c0 -5 5 -7 10 -4 6 3 10 8 10 11 0 2 -4 4 -10 4 -5 0 -10
-5 -10 -11z"/>
<path d="M2415 3950 c6 -10 4 -12 -11 -6 -15 6 -17 5 -6 -5 9 -9 15 -10 23 -2
8 8 7 13 -2 18 -8 6 -10 4 -4 -5z"/>
<path d="M2706 3897 c3 -10 9 -15 12 -12 3 3 0 11 -7 18 -10 9 -11 8 -5 -6z"/>
<path d="M2620 3876 c7 -7 14 -6 21 1 9 9 7 12 -9 10 -14 -1 -18 -5 -12 -11z"/>
<path d="M2730 3878 c0 -6 3 -8 7 -5 3 4 13 1 22 -6 14 -11 14 -10 2 6 -15 20
-31 22 -31 5z"/>
<path d="M2675 3860 c3 -5 8 -10 11 -10 2 0 4 5 4 10 0 6 -5 10 -11 10 -5 0
-7 -4 -4 -10z"/>
<path d="M397 3821 c-10 -4 -18 -11 -17 -15 1 -5 -4 -13 -12 -18 -10 -8 -10
-9 2 -5 8 2 14 10 13 16 -2 6 3 11 11 11 8 0 18 5 21 10 7 11 7 11 -18 1z"/>
<path d="M3030 3820 c0 -5 5 -10 10 -10 6 0 10 5 10 10 0 6 -4 10 -10 10 -5 0
-10 -4 -10 -10z"/>
<path d="M407 3792 c-24 -27 -21 -36 4 -11 11 11 19 23 16 25 -2 2 -11 -4 -20
-14z"/>
<path d="M3060 3799 c0 -5 5 -7 10 -4 6 3 10 8 10 11 0 2 -4 4 -10 4 -5 0 -10
-5 -10 -11z"/>
<path d="M2956 3792 c-3 -4 4 -9 15 -9 23 -2 25 3 4 10 -8 4 -16 3 -19 -1z"/>
<path d="M3033 3785 c0 -8 4 -15 9 -15 4 0 8 4 8 9 0 6 -4 12 -8 15 -5 3 -9
-1 -9 -9z"/>
<path d="M475 3660 c-4 -6 -10 -8 -14 -6 -4 3 -8 -1 -8 -9 0 -8 4 -12 9 -9 12
8 10 -10 -3 -23 -15 -15 7 -12 35 3 13 8 16 17 11 33 -7 23 -20 27 -30 11z
m14 -36 c-14 -13 -15 -13 -13 8 1 13 3 25 3 28 1 2 6 -1 13 -8 10 -9 9 -16 -3
-28z"/>
<path d="M3515 3640 c-3 -5 -1 -10 4 -10 6 0 11 5 11 10 0 6 -2 10 -4 10 -3 0
-8 -4 -11 -10z"/>
<path d="M3948 3508 c-7 -18 1 -38 15 -38 8 0 8 3 0 11 -6 6 -9 18 -6 25 3 8
3 14 0 14 -3 0 -7 -6 -9 -12z"/>
<path d="M3916 3481 c-4 -6 -1 -11 6 -11 9 0 9 -3 -2 -10 -9 -6 -10 -10 -3
-10 17 0 23 14 14 29 -6 9 -11 10 -15 2z"/>
<path d="M4099 3423 c-1 -5 -1 -12 0 -17 1 -5 -5 -6 -14 -3 -8 4 -15 2 -15 -4
0 -6 8 -9 17 -7 9 2 15 7 14 12 -2 5 3 13 11 17 10 7 10 9 1 9 -7 0 -14 -3
-14 -7z"/>
<path d="M4391 3174 c7 -8 6 -14 -3 -17 -9 -4 -10 -6 -1 -6 7 -1 17 7 22 17 7
14 6 18 -9 18 -14 0 -16 -4 -9 -12z"/>
<path d="M1030 3080 c0 -5 5 -10 11 -10 5 0 7 5 4 10 -3 6 -8 10 -11 10 -2 0
-4 -4 -4 -10z"/>
<path d="M4475 3060 c-3 -6 1 -7 9 -4 18 7 21 14 7 14 -6 0 -13 -4 -16 -10z"/>
<path d="M1175 3000 c3 -5 8 -10 11 -10 2 0 4 5 4 10 0 6 -5 10 -11 10 -5 0
-7 -4 -4 -10z"/>
<path d="M1586 2822 c-2 -4 4 -8 14 -8 10 0 16 4 14 8 -3 4 -9 8 -14 8 -5 0
-11 -4 -14 -8z"/>
<path d="M2200 2700 c-9 -6 -10 -10 -3 -10 6 0 15 5 18 10 8 12 4 12 -15 0z"/>
<path d="M2225 2689 c-4 -11 -11 -17 -16 -14 -5 3 -6 -2 -2 -11 5 -13 3 -15
-7 -9 -9 6 -11 4 -5 -5 6 -10 10 -10 19 2 6 8 16 13 23 11 6 -2 17 5 23 16 6
12 9 21 8 22 -27 7 -38 4 -43 -12z m29 -4 c-7 -16 -24 -21 -24 -6 0 8 7 13 27
20 1 1 0 -6 -3 -14z"/>
<path d="M4706 2678 c3 -4 9 -8 15 -8 5 0 9 4 9 8 0 5 -7 9 -15 9 -8 0 -12 -4
-9 -9z"/>
<path d="M2300 2648 c0 -4 9 -8 20 -8 11 0 20 4 20 8 0 4 -9 8 -20 8 -11 0
-20 -4 -20 -8z"/>
<path d="M2515 2580 c3 -5 8 -10 11 -10 2 0 4 5 4 10 0 6 -5 10 -11 10 -5 0
-7 -4 -4 -10z"/>
<path d="M4890 2059 c0 -5 5 -7 10 -4 6 3 10 8 10 11 0 2 -4 4 -10 4 -5 0 -10
-5 -10 -11z"/>
<path d="M4856 1958 c3 -5 10 -6 15 -3 13 9 11 12 -6 12 -8 0 -12 -4 -9 -9z"/>
<path d="M4866 1918 c3 -5 10 -6 15 -3 13 9 11 12 -6 12 -8 0 -12 -4 -9 -9z"/>
<path d="M810 1813 c0 -6 8 -17 18 -24 16 -13 16 -13 2 6 -8 11 -16 22 -17 24
-2 2 -3 0 -3 -6z"/>
<path d="M765 1800 c-3 -5 -1 -10 4 -10 6 0 11 5 11 10 0 6 -2 10 -4 10 -3 0
-8 -4 -11 -10z"/>
<path d="M790 1780 c0 -5 5 -10 10 -10 6 0 10 5 10 10 0 6 -4 10 -10 10 -5 0
-10 -4 -10 -10z"/>
<path d="M700 1752 c0 -8 -5 -10 -12 -6 -10 6 -10 4 0 -7 14 -16 16 -33 2 -24
-5 3 -7 0 -4 -8 6 -18 -21 -41 -41 -33 -10 3 -15 -1 -16 -12 0 -14 -2 -14 -9
3 -8 19 -9 19 -9 -2 -1 -13 1 -23 4 -23 13 0 62 30 74 44 7 9 17 14 21 11 5
-3 6 4 3 15 -3 12 0 20 6 20 7 0 10 -4 7 -8 -3 -5 2 -9 10 -9 9 0 11 4 5 10
-5 5 -7 17 -4 26 4 14 3 14 -6 1 -10 -13 -12 -13 -21 0 -7 11 -10 11 -10 2z"/>
<path d="M3496 1658 c3 -4 11 -5 19 -1 21 7 19 12 -4 10 -11 0 -18 -5 -15 -9z"/>
<path d="M604 1623 c10 -11 37 -12 30 -2 -3 5 -12 9 -21 9 -9 0 -13 -3 -9 -7z"/>
<path d="M1356 1573 c-6 -14 -5 -15 5 -6 7 7 10 15 7 18 -3 3 -9 -2 -12 -12z"/>
<path d="M3405 1480 c-3 -5 -1 -10 4 -10 6 0 11 5 11 10 0 6 -2 10 -4 10 -3 0
-8 -4 -11 -10z"/>
<path d="M3433 1468 c-2 -18 0 -20 7 -8 12 18 13 30 2 30 -4 0 -9 -10 -9 -22z"/>
<path d="M1620 1430 c0 -6 -4 -9 -9 -6 -10 7 -34 -19 -37 -39 -1 -8 5 -12 17
-10 10 2 21 -1 24 -6 9 -14 24 -1 21 19 -2 9 0 19 4 22 4 3 2 11 -6 18 -9 8
-14 9 -14 2z m6 -36 c0 -18 -3 -21 -13 -12 -7 6 -13 7 -13 4 0 -4 -5 -4 -10
-1 -8 5 -8 11 -1 19 17 20 37 15 37 -10z"/>
<path d="M1596 1402 c-3 -5 1 -9 9 -9 8 0 12 4 9 9 -3 4 -7 8 -9 8 -2 0 -6 -4
-9 -8z"/>
<path d="M4773 1417 c0 -9 7 -12 21 -9 19 5 19 3 -4 -17 -14 -12 -19 -20 -12
-16 6 3 12 2 12 -3 0 -6 7 -12 14 -15 10 -4 13 -1 9 9 -3 7 -10 14 -17 14 -6
0 -4 5 4 10 21 14 30 12 24 -4 -3 -8 0 -17 7 -22 8 -4 10 -3 5 5 -4 6 -2 18 4
26 7 8 11 15 9 16 -2 0 -13 2 -24 4 -11 1 -27 5 -36 9 -10 4 -16 2 -16 -7z"/>
<path d="M1823 1337 c-4 -6 -1 -7 7 -2 10 6 12 4 7 -8 -9 -23 0 -22 12 1 8 14
6 19 -5 19 -8 0 -18 -5 -21 -10z"/>
<path d="M3210 1300 c0 -5 5 -10 11 -10 5 0 7 5 4 10 -3 6 -8 10 -11 10 -2 0
-4 -4 -4 -10z"/>
<path d="M2109 1276 c-1 -3 -2 -9 -3 -13 -4 -20 -19 -34 -33 -29 -8 4 -11 1
-8 -5 4 -6 14 -8 22 -5 8 3 20 3 26 -1 7 -4 20 -8 29 -8 14 -1 15 1 6 13 -8 9
-14 10 -16 3 -2 -6 -8 -9 -12 -6 -5 3 -7 12 -4 20 5 11 11 12 25 4 11 -5 25
-7 31 -3 8 5 9 2 5 -9 -4 -10 -2 -17 4 -17 6 0 9 9 6 19 -3 13 1 22 12 25 11
3 10 4 -4 3 -11 -1 -27 3 -35 8 -13 8 -13 7 -1 -8 17 -21 7 -22 -24 -1 -14 9
-26 14 -26 10z"/>
<path d="M155 1262 c3 -3 -3 -15 -12 -26 -14 -15 -14 -18 -2 -8 9 6 18 11 20
9 2 -1 3 0 2 2 -2 2 2 9 7 16 7 8 5 12 -5 12 -8 0 -13 -3 -10 -5z"/>
<path d="M2271 1253 c7 -12 15 -20 18 -17 3 2 -3 12 -13 22 -17 16 -18 16 -5
-5z"/>
<path d="M2854 1258 c-4 -7 -3 -8 4 -4 7 4 12 2 12 -3 0 -6 5 -11 10 -11 15 0
12 17 -5 23 -8 4 -17 1 -21 -5z"/>
<path d="M2800 1246 c0 -2 8 -10 18 -17 15 -13 16 -12 3 4 -13 16 -21 21 -21
13z"/>
<path d="M2230 1236 c0 -2 9 -6 20 -9 11 -3 18 -1 14 4 -5 9 -34 13 -34 5z"/>
<path d="M2851 1233 c-1 -17 16 -25 25 -12 4 7 3 9 -4 5 -5 -3 -13 0 -15 6 -4
9 -6 10 -6 1z"/>
<path d="M4670 1020 c0 -5 -10 -9 -22 -7 -24 2 -30 -16 -15 -46 7 -15 11 -16
23 -6 13 10 17 10 25 -2 5 -9 9 -10 9 -2 0 6 -4 14 -9 17 -10 7 -9 25 2 44 5
7 4 12 -2 12 -6 0 -11 -4 -11 -10z m-20 -19 c0 -6 -4 -12 -8 -15 -5 -3 -9 1
-9 9 0 8 4 15 9 15 4 0 8 -4 8 -9z"/>
<path d="M176 913 c-6 -14 -5 -15 5 -6 7 7 10 15 7 18 -3 3 -9 -2 -12 -12z"/>
<path d="M4548 843 c6 -2 18 -2 25 0 6 3 1 5 -13 5 -14 0 -19 -2 -12 -5z"/>
<path d="M4590 831 c0 -7 -5 -9 -12 -5 -7 5 -8 3 -3 -5 5 -9 10 -10 18 -2 6 6
8 14 4 18 -4 3 -7 1 -7 -6z"/>
<path d="M4501 763 c-6 -11 -11 -13 -11 -5 0 7 -5 10 -11 6 -8 -4 -3 -12 12
-20 13 -7 18 -13 12 -14 -7 0 -13 -5 -13 -11 0 -23 26 10 28 35 2 30 -3 33
-17 9z"/>
<path d="M4230 479 c0 -5 5 -7 10 -4 6 3 10 8 10 11 0 2 -4 4 -10 4 -5 0 -10
-5 -10 -11z"/>
<path d="M733 435 c0 -8 4 -12 9 -9 5 3 6 10 3 15 -9 13 -12 11 -12 -6z"/>
<path d="M858 363 c5 -21 7 -23 10 -9 2 10 0 22 -6 28 -6 6 -7 0 -4 -19z"/>
<path d="M890 351 c0 -6 4 -13 10 -16 6 -3 7 1 4 9 -7 18 -14 21 -14 7z"/>
<path d="M1017 249 c7 -7 15 -10 18 -7 3 3 -2 9 -12 12 -14 6 -15 5 -6 -5z"/>
<path d="M3499 113 c-13 -17 -13 -17 6 -3 11 8 22 16 24 17 2 2 0 3 -6 3 -6 0
-17 -8 -24 -17z"/>
<path d="M1850 60 c-9 -6 -10 -10 -3 -10 6 0 15 5 18 10 8 12 4 12 -15 0z"/>
<path d="M3080 61 c-8 -4 -33 -7 -55 -7 -31 1 -44 -4 -56 -22 -14 -19 -17 -21
-22 -8 -4 9 -11 16 -17 16 -8 0 -8 -6 -1 -17 8 -15 24 -18 80 -18 38 0 68 1
66 4 -3 2 -1 9 4 15 8 11 22 46 18 46 -1 0 -9 -4 -17 -9z m-46 -28 c-7 19 11
24 22 6 4 -8 9 -7 15 2 5 8 9 9 9 3 0 -26 -49 -39 -77 -21 -8 5 -13 4 -13 -2
0 -6 -5 -11 -11 -11 -8 0 -8 5 1 15 7 8 16 12 21 9 5 -3 9 0 9 7 0 7 7 4 15
-7 13 -16 14 -16 9 -1z"/>
<path d="M3138 58 c5 -5 16 -8 23 -6 8 3 3 7 -10 11 -17 4 -21 3 -13 -5z"/>
<path d="M1921 46 c-10 -11 -9 -14 1 -12 14 2 23 15 15 22 -2 2 -10 -2 -16
-10z"/>
<path d="M3110 50 c0 -5 5 -10 11 -10 5 0 7 5 4 10 -3 6 -8 10 -11 10 -2 0 -4
-4 -4 -10z"/>
<path d="M1838 27 c12 -7 19 -17 15 -22 -4 -4 -2 -5 6 0 12 7 11 10 -4 22 -11
7 -24 13 -29 13 -6 -1 -1 -6 12 -13z"/>
<path d="M1755 19 c-3 -4 2 -6 10 -5 21 3 28 13 10 13 -9 0 -18 -4 -20 -8z"/>
<path d="M3093 17 c-3 -5 -2 -11 1 -14 3 -4 6 -2 6 3 0 5 9 10 20 11 13 1 18
-2 14 -9 -4 -7 -2 -8 5 -4 6 4 9 11 6 16 -7 11 -45 9 -52 -3z"/>
<path d="M3216 22 c-3 -5 1 -9 9 -9 8 0 12 4 9 9 -3 4 -7 8 -9 8 -2 0 -6 -4
-9 -8z"/>
</g>
</svg>
